<?xml version="1.0" encoding="utf-8"?>
<!-- Generator: Adobe Illustrator 19.0.0, SVG Export Plug-In . SVG Version: 6.00 Build 0)  -->
<svg version="1.1" id="Laag_1" xmlns="http://www.w3.org/2000/svg" xmlns:xlink="http://www.w3.org/1999/xlink" x="0px" y="0px"
	 viewBox="0 0 227.6 227.6" style="enable-background:new 0 0 227.6 227.6;" xml:space="preserve">
<style type="text/css">
	.st0{fill:#5EAC24;}
	.st1{fill:#FFFFFF;}
</style>
<circle id="XMLID_48_" class="st0" cx="113.4" cy="107.6" r="80.7"/>
<g id="XMLID_27_">
	<path id="XMLID_72_" class="st1" d="M116.7,81.5c-4,0-7.7,1.3-11,3.5c-6.4,4.2-10.6,10.3-14.5,16.7c-1,1.7-0.8,3.4,0.4,4.2
		c1.3,0.8,2.7,0.2,3.9-1.6c0.9-1.4,1.7-2.8,2.8-4.1c1.7-1.9,3.6-3.6,5.5-5.3c0.4-0.4,1.4-0.6,1.8-0.4c0.4,0.2,0.6,1.2,0.5,1.8
		c-0.1,1.1-0.4,2.2-0.7,3.2c-3.7,12.8-7.4,25.5-11,38.3c-1.4,4.8-2.9,9.6-3.8,14.5c-1.4,7,3.1,12.5,9.8,13.3
		c4.2,0.5,8.1-0.5,11.8-2.6c4.8-2.8,8.5-6.8,11.7-11.3c1.5-2.1,2.9-4.4,4.3-6.6c0.9-1.4,0.5-3.1-0.6-3.8c-1.1-0.7-2.4-0.3-3.5,1.2
		c-0.5,0.6-0.9,1.3-1.3,2c-2,3-4.4,5.7-7.3,7.8c-0.5,0.4-1.3,0.4-2,0.6c-0.2-0.7-0.6-1.4-0.5-2.1c0.3-1.7,0.7-3.4,1.1-5.1
		c4.6-15.8,9.2-31.6,13.7-47.4c0.9-3.1,1.3-6.2,0.2-9.4C126.6,84.3,122.2,81.5,116.7,81.5z"/>
	<path id="XMLID_51_" class="st1" d="M136.3,62.1c0-7.1-5.7-12.7-12.7-12.7c-7,0-12.7,5.7-12.7,12.7c0,7.1,5.6,12.7,12.7,12.7
		C130.8,74.8,136.4,69.2,136.3,62.1z"/>
	<path id="XMLID_50_" class="st1" d="M116.7,81.5c5.6,0,9.9,2.7,11.5,7.4c1.1,3.1,0.7,6.3-0.2,9.4c-4.5,15.8-9.1,31.6-13.7,47.4
		c-0.5,1.7-0.9,3.4-1.1,5.1c-0.1,0.7,0.3,1.4,0.5,2.1c0.7-0.2,1.5-0.2,2-0.6c2.9-2.1,5.3-4.8,7.3-7.8c0.4-0.7,0.8-1.3,1.3-2
		c1.1-1.5,2.4-1.9,3.5-1.2c1.1,0.7,1.5,2.4,0.6,3.8c-1.4,2.2-2.7,4.5-4.3,6.6c-3.2,4.5-6.9,8.5-11.7,11.3c-3.6,2.1-7.6,3.1-11.8,2.6
		c-6.7-0.8-11.2-6.3-9.8-13.3c1-4.9,2.4-9.7,3.8-14.5c3.6-12.8,7.3-25.5,11-38.3c0.3-1.1,0.6-2.1,0.7-3.2c0-0.6-0.1-1.5-0.5-1.8
		c-0.4-0.2-1.4,0-1.8,0.4c-1.9,1.7-3.8,3.4-5.5,5.3c-1.1,1.2-1.9,2.7-2.8,4.1c-1.2,1.8-2.6,2.4-3.9,1.6c-1.2-0.8-1.4-2.5-0.4-4.2
		c3.8-6.4,8.1-12.5,14.5-16.7C109,82.8,112.6,81.5,116.7,81.5z"/>
	<path id="XMLID_49_" class="st1" d="M136.3,62.1c0,7.1-5.6,12.7-12.7,12.7c-7.1,0-12.7-5.6-12.7-12.7c0-7,5.6-12.7,12.7-12.7
		C130.7,49.4,136.3,55.1,136.3,62.1z"/>
</g>
</svg>
