<svg width="16" height="16" viewBox="0 0 16 16" version="1.1" xmlns="http://www.w3.org/2000/svg" xmlns:xlink="http://www.w3.org/1999/xlink">
<title>Combined Shape</title>
<desc>Created using Figma</desc>
<g id="Canvas" transform="translate(-1660 -3904)">
<g id="Combined Shape">
<use xlink:href="#path0_fill" transform="translate(1660 3904)" fill="url(#paint0_linear)"/>
</g>
</g>
<defs>
<linearGradient id="paint0_linear" x1="0" y1="0" x2="1" y2="0" gradientUnits="userSpaceOnUse" gradientTransform="matrix(13.2475 13.2475 -13.2475 13.2475 0 0)">
<stop offset="0.192553" stop-color="#1DEFAC"/>
<stop offset="0.436944" stop-color="#11D071"/>
<stop offset="0.621439" stop-color="#10CC6B"/>
<stop offset="1" stop-color="#05B139"/>
</linearGradient>
<path id="path0_fill" fill-rule="evenodd" d="M 8 16C 12.4183 16 16 12.4182 16 8C 16 3.58179 12.4183 0 8 0C 3.58167 0 0 3.58179 0 8C 0 12.4182 3.58167 16 8 16ZM 8.77014 3.19995C 9.42456 3.19995 9.95532 3.73071 9.95532 4.38525C 9.95532 5.03955 9.42456 5.57031 8.77014 5.57031C 8.11572 5.57031 7.58496 5.03955 7.58496 4.38525C 7.58496 3.73071 8.11548 3.19995 8.77014 3.19995ZM 6.40002 10.8442C 6.40002 11.9897 7.32849 12.9185 8.47412 12.9185C 9.33411 12.9185 10.0715 12.395 10.3857 11.6499C 10.2521 11.7019 10.1078 11.7332 9.95557 11.7332C 9.52368 11.7332 9.14563 11.5022 8.93848 11.157C 8.83179 10.979 8.77039 10.7705 8.77039 10.5481C 8.77039 10.4607 8.77991 10.3752 8.79785 10.293L 9.10962 8.87036L 9.33545 7.83984C 9.34326 7.80371 9.34973 7.7666 9.35425 7.72925C 9.36011 7.68213 9.36304 7.63403 9.36304 7.58521C 9.36304 7.36255 9.30164 7.15405 9.19495 6.97607C 8.98779 6.6311 8.60974 6.3999 8.17786 6.3999C 7.59802 6.3999 7.11536 6.81641 7.01282 7.36621L 6.4353 10.4614C 6.41211 10.5857 6.40002 10.7136 6.40002 10.8442Z"/>
</defs>
</svg>
