<svg width="234" height="102" viewBox="0 0 234 102" version="1.1" xmlns="http://www.w3.org/2000/svg" xmlns:xlink="http://www.w3.org/1999/xlink">
<title>Logo</title>
<desc>Created using Figma</desc>
<g id="Canvas" transform="translate(-1676 -825)">
<g id="Logo">
<g id="Typo">
<g id="CO">
<g id="CO">
<use xlink:href="#path0_fill" transform="translate(1676 825)" fill="#606468"/>
</g>
<mask id="mask0_outline" mask-type="alpha">
<g id="CO">
<use xlink:href="#path0_fill" transform="translate(1676 825)" fill="#FFFFFF"/>
</g>
</mask>
<g id="Shadow" mask="url(#mask0_outline)">
<use xlink:href="#path1_fill" transform="translate(1772 873)" fill="url(#paint2_linear)"/>
</g>
</g>
<g id="2">
<g id="Mask">
<use xlink:href="#path2_fill" transform="translate(1772 884.65)" fill="#606468"/>
</g>
<mask id="mask1_outline" mask-type="alpha">
<g id="Mask">
<use xlink:href="#path2_fill" transform="translate(1772 884.65)" fill="#FFFFFF"/>
</g>
</mask>
<g id="Rectangle" mask="url(#mask1_outline)">
<use xlink:href="#path3_fill" transform="translate(1786 899)" fill="url(#paint5_linear)"/>
</g>
</g>
</g>
<g id="OK">
<g id="Oval">
<use xlink:href="#path4_fill" transform="translate(1822 839)" fill="#FFFFFF"/>
</g>
<g id="Group">
<g id="K">
<use xlink:href="#path5_fill" transform="translate(1871 839)" fill="#FFFFFF"/>
</g>
<g id="K" opacity="0.294441">
<use xlink:href="#path6_fill" transform="translate(1888.32 858.407)" fill="url(#paint8_linear)"/>
</g>
</g>
</g>
</g>
</g>
<defs>
<linearGradient id="paint2_linear" x1="0" y1="0" x2="1" y2="0" gradientUnits="userSpaceOnUse" gradientTransform="matrix(-16.6346 14.438 -44.5389 -5.39237 23.916 5.83499)">
<stop offset="0" stop-color="#000000" stop-opacity="0.01"/>
<stop offset="1"/>
</linearGradient>
<linearGradient id="paint5_linear" x1="0" y1="0" x2="1" y2="0" gradientUnits="userSpaceOnUse" gradientTransform="matrix(-12.938 17.3207 -34.6413 -6.46901 18.6013 7)">
<stop offset="0" stop-color="#000000" stop-opacity="0.01"/>
<stop offset="1"/>
</linearGradient>
<linearGradient id="paint8_linear" x1="0" y1="0" x2="1" y2="0" gradientUnits="userSpaceOnUse" gradientTransform="matrix(6.74072 6.38525 -5.20458 8.26987 -0.821966 5.54148)">
<stop offset="0"/>
<stop offset="1" stop-color="#FFFFFF" stop-opacity="0.01"/>
</linearGradient>
<path id="path0_fill" fill-rule="evenodd" d="M 61 65.0947C 57.6748 67.9502 53.9507 70.1416 49.8275 71.6689C 45.7043 73.1963 41.4315 74 37.009 74C 33.6173 74 30.3504 73.52 27.2081 72.6401C 24.0658 71.7602 21.1231 70.5151 18.3798 68.9048C 15.6365 67.2944 13.1344 65.3604 10.8733 63.1025C 8.61214 60.8447 6.67526 58.3462 5.06255 55.6069C 3.44984 52.8677 2.20292 49.9292 1.32175 46.7915C 0.440579 43.6538 0 40.3916 0 37.0049C 0 33.6181 0.440579 30.3477 1.32175 27.1934C 2.20292 24.039 3.44984 21.0923 5.06255 18.353C 6.67526 15.6138 8.61214 13.1152 10.8733 10.8574C 13.1344 8.5996 15.6365 6.66554 18.3798 5.05518C 21.1231 3.44482 24.0658 2.19971 27.2081 1.31982C 30.3504 0.439937 33.6173 0 37.009 0C 41.4315 0 45.7043 0.755364 49.8275 2.26611C 53.9507 3.77686 57.6748 5.97655 61 8.86523L 53.4186 21.3164C 51.3238 19.0586 48.8466 17.3237 45.9869 16.1118C 43.1273 14.8999 40.1347 14.2939 37.009 14.2939C 33.8501 14.2939 30.8907 14.8916 28.1308 16.0869C 25.3709 17.2822 22.9602 18.9009 20.8986 20.9429C 18.837 22.9849 17.2077 25.3921 16.0106 28.1646C 14.8136 30.937 14.215 33.8838 14.215 37.0049C 14.215 40.126 14.8136 43.0561 16.0106 45.7954C 17.2077 48.5347 18.837 50.9336 20.8986 52.9922C 22.9602 55.0508 25.3709 56.6777 28.1308 57.873C 30.8907 59.0684 33.8501 59.666 37.009 59.666C 40.1347 59.666 43.1273 59.0601 45.9869 57.8481C 48.8466 56.6362 51.3238 54.9014 53.4186 52.6436L 61 65.0947ZM 132.112 37.0049C 132.112 40.3916 131.672 43.6538 130.792 46.7915C 129.913 49.9292 128.676 52.8677 127.082 55.6069C 125.488 58.3462 123.563 60.8447 121.305 63.1025C 119.047 65.3604 116.557 67.2944 113.834 68.9048C 111.111 70.5151 108.173 71.7602 105.019 72.6401C 101.864 73.52 98.5938 74 95.207 74C 91.8203 74 88.5581 73.52 85.4204 72.6401C 82.2827 71.7602 79.3443 70.5151 76.605 68.9048C 73.8657 67.2944 71.3672 65.3604 69.1094 63.1025C 66.8516 60.8447 64.9175 58.3462 63.3071 55.6069C 61.6968 52.8677 60.4517 49.9292 59.5718 46.7915C 58.6919 43.6538 58.252 40.3916 58.252 37.0049C 58.252 33.6181 58.6919 30.3477 59.5718 27.1934C 60.4517 24.039 61.6968 21.1006 63.3071 18.3779C 64.9175 15.6553 66.8516 13.1651 69.1094 10.9072C 71.3672 8.6494 73.8657 6.72364 76.605 5.12988C 79.3443 3.53612 82.2827 2.29932 85.4204 1.41943C 88.5581 0.539546 91.8203 0 95.207 0C 98.5938 0 101.864 0.539546 105.019 1.41943C 108.173 2.29932 111.111 3.53612 113.834 5.12988C 116.557 6.72364 119.047 8.6494 121.305 10.9072C 123.563 13.1651 125.488 15.6553 127.082 18.3779C 128.676 21.1006 129.913 24.039 130.792 27.1934C 131.672 30.3477 132.112 33.6181 132.112 37.0049ZM 117.918 37.0049C 117.918 33.8838 117.32 30.937 116.125 28.1646C 114.93 25.3921 113.311 22.9849 111.269 20.9429C 109.227 18.9009 106.82 17.2822 104.047 16.0869C 101.275 14.8916 98.3281 14.2939 95.207 14.2939C 92.0527 14.2939 89.0977 14.8916 86.3418 16.0869C 83.5859 17.2822 81.1787 18.9009 79.1201 20.9429C 77.0615 22.9849 75.4346 25.3921 74.2393 28.1646C 73.0439 30.937 72.4463 33.8838 72.4463 37.0049C 72.4463 40.126 73.0439 43.0561 74.2393 45.7954C 75.4346 48.5347 77.0615 50.9336 79.1201 52.9922C 81.1787 55.0508 83.5859 56.6777 86.3418 57.873C 89.0977 59.0684 92.0527 59.666 95.207 59.666C 98.3281 59.666 101.275 59.0684 104.047 57.873C 106.82 56.6777 109.227 55.0508 111.269 52.9922C 113.311 50.9336 114.93 48.5347 116.125 45.7954C 117.32 43.0561 117.918 40.126 117.918 37.0049Z"/>
<path id="path1_fill" fill-rule="evenodd" d="M 0 0L 36 0L 36 11.67L 0 11.67L 0 0Z"/>
<path id="path2_fill" fill-rule="evenodd" d="M 50 28.35L 50 42.35L 16.6667 42.35L 16.6667 27.35C 16.7142 24.874 17.2963 22.7629 18.6857 20.7491C 21.0963 17.2207 31.0981 14.1667 30.1006 14.3271L 0 14.35L 0 0L 33.4166 0C 42.691 0 50 5.83123 50 13.66C 50 16.2361 49.1806 18.6641 47.7438 20.7491C 45.3688 24.2274 41.2838 27.5581 36.4625 28.35L 50 28.35Z"/>
<path id="path3_fill" fill-rule="evenodd" d="M 0 0L 28 0L 28 14L 0 14L 0 0Z"/>
<path id="path4_fill" fill-rule="evenodd" d="M 0 23C 0 35.7026 10.2975 46 23 46C 35.7025 46 46 35.7026 46 23C 46 10.2974 35.7025 0 23 0C 10.2975 0 0 10.2974 0 23ZM 34 23C 34 29.0751 29.0751 34 23 34C 16.9249 34 12 29.0751 12 23C 12 16.9249 16.9249 12 23 12C 29.0751 12 34 16.9249 34 23Z"/>
<path id="path5_fill" fill-rule="evenodd" d="M 10.2658 46L 0 46L 0 0L 10.2658 0L 10.2658 21.9893L 26.4616 0L 37.9845 0L 23.3838 19.4073L 39 46L 27.4772 46L 17.3244 27.3947L 10.2658 36.7936L 10.2658 46Z"/>
<path id="path6_fill" fill-rule="evenodd" d="M 6.05943 0L 21.6756 26.5927L 10.1528 26.5927L 0 7.98745L 6.05943 0Z"/>
</defs>
</svg>
