<svg xmlns="http://www.w3.org/2000/svg" xmlns:xlink="http://www.w3.org/1999/xlink" viewBox="0 0 236 102"><defs><mask id="mask" x="0" y="0" width="132.11" height="74" maskUnits="userSpaceOnUse"><g id="mask0_outline" data-name="mask0 outline"><g id="CO"><path id="path0_fill" data-name="path0 fill" d="M61,65.09A37.06,37.06,0,0,1,37,74a36.18,36.18,0,0,1-9.8-1.36,36.76,36.76,0,0,1-8.83-3.74A37.14,37.14,0,0,1,1.32,46.79a37,37,0,0,1,0-19.6,37.06,37.06,0,0,1,3.74-8.84A37.52,37.52,0,0,1,18.38,5.06a36.76,36.76,0,0,1,8.83-3.74A36.16,36.16,0,0,1,37,0,37,37,0,0,1,49.83,2.27,35.59,35.59,0,0,1,61,8.87L53.42,21.32A21.42,21.42,0,0,0,46,16.11a22.84,22.84,0,0,0-9-1.82,22,22,0,0,0-8.88,1.8,23.26,23.26,0,0,0-7.23,4.85A22.81,22.81,0,0,0,16,28.16,22,22,0,0,0,14.22,37,21.67,21.67,0,0,0,16,45.8,23.37,23.37,0,0,0,20.9,53a23,23,0,0,0,7.23,4.88A22,22,0,0,0,37,59.67a22.84,22.84,0,0,0,9-1.82,21.42,21.42,0,0,0,7.43-5.21ZM132.11,37a36.09,36.09,0,0,1-1.32,9.79,37.43,37.43,0,0,1-3.71,8.82,36.68,36.68,0,0,1-5.77,7.49,37.4,37.4,0,0,1-7.48,5.8,36.67,36.67,0,0,1-37.22,0,37.19,37.19,0,0,1-17-22.11,37,37,0,0,1,0-19.6,36.51,36.51,0,0,1,3.74-8.81,37.63,37.63,0,0,1,5.8-7.47,36.44,36.44,0,0,1,7.5-5.78,37.59,37.59,0,0,1,8.81-3.71,34.53,34.53,0,0,1,19.6,0,37.24,37.24,0,0,1,8.81,3.71,36.59,36.59,0,0,1,7.48,5.78,36.76,36.76,0,0,1,9.48,16.28A36.4,36.4,0,0,1,132.11,37Zm-14.19,0a22,22,0,0,0-1.8-8.84,22.57,22.57,0,0,0-12.07-12.07,22.68,22.68,0,0,0-17.71,0,23.33,23.33,0,0,0-7.22,4.85,22.62,22.62,0,0,0-4.88,7.22A22,22,0,0,0,72.45,37a21.67,21.67,0,0,0,1.79,8.8,23,23,0,0,0,12.1,12.07,22.68,22.68,0,0,0,17.71,0A22.62,22.62,0,0,0,111.27,53a23.43,23.43,0,0,0,4.85-7.19A21.68,21.68,0,0,0,117.92,37Z" style="fill:#fff"/></g></g></mask><linearGradient id="linear-gradient" x1="-817.53" y1="619.53" x2="-816.53" y2="619.53" gradientTransform="matrix(-16.63, 14.44, 44.54, 5.39, -41077.81, 8515.91)" gradientUnits="userSpaceOnUse"><stop offset="0" stop-opacity="0.01"/><stop offset="1"/></linearGradient><mask id="mask-2" x="96" y="59.65" width="50" height="42.35" maskUnits="userSpaceOnUse"><g id="mask1_outline" data-name="mask1 outline"><g id="Mask-3" data-name="Mask"><path id="path2_fill" data-name="path2 fill" d="M146,88v14H112.67V87a11.38,11.38,0,0,1,2-6.6c2.41-3.53,12.41-6.58,11.41-6.42L96,74V59.65h33.42c9.27,0,16.58,5.83,16.58,13.66a12.42,12.42,0,0,1-2.26,7.09A17.79,17.79,0,0,1,132.46,88Z" style="fill:#fff"/></g></g></mask><linearGradient id="linear-gradient-2" x1="-824.23" y1="622.42" x2="-823.23" y2="622.42" gradientTransform="matrix(-12.94, 17.32, 34.64, 6.47, -32100.91, 10330.05)" xlink:href="#linear-gradient"/><linearGradient id="linear-gradient-3" x1="-734.29" y1="615.44" x2="-733.29" y2="615.44" gradientTransform="matrix(6.74, 6.39, 5.2, -8.27, 1960.33, 9830.71)" gradientUnits="userSpaceOnUse"><stop offset="0"/><stop offset="1" stop-color="#fff" stop-opacity="0.01"/></linearGradient></defs><title>logo_wit</title><g id="Layer_2" data-name="Layer 2"><g id="Layer_1-2" data-name="Layer 1"><g id="CO-2" data-name="CO"><path id="path0_fill-2" data-name="path0 fill" d="M61,65.09A37.06,37.06,0,0,1,37,74a36.18,36.18,0,0,1-9.8-1.36,36.76,36.76,0,0,1-8.83-3.74A37.14,37.14,0,0,1,1.32,46.79a37,37,0,0,1,0-19.6,37.06,37.06,0,0,1,3.74-8.84A37.52,37.52,0,0,1,18.38,5.06a36.76,36.76,0,0,1,8.83-3.74A36.16,36.16,0,0,1,37,0,37,37,0,0,1,49.83,2.27,35.59,35.59,0,0,1,61,8.87L53.42,21.32A21.42,21.42,0,0,0,46,16.11a22.84,22.84,0,0,0-9-1.82,22,22,0,0,0-8.88,1.8,23.26,23.26,0,0,0-7.23,4.85A22.81,22.81,0,0,0,16,28.16,22,22,0,0,0,14.22,37,21.67,21.67,0,0,0,16,45.8,23.37,23.37,0,0,0,20.9,53a23,23,0,0,0,7.23,4.88A22,22,0,0,0,37,59.67a22.84,22.84,0,0,0,9-1.82,21.42,21.42,0,0,0,7.43-5.21ZM132.11,37a36.09,36.09,0,0,1-1.32,9.79,37.43,37.43,0,0,1-3.71,8.82,36.68,36.68,0,0,1-5.77,7.49,37.4,37.4,0,0,1-7.48,5.8,36.67,36.67,0,0,1-37.22,0,37.19,37.19,0,0,1-17-22.11,37,37,0,0,1,0-19.6,36.51,36.51,0,0,1,3.74-8.81,37.63,37.63,0,0,1,5.8-7.47,36.44,36.44,0,0,1,7.5-5.78,37.59,37.59,0,0,1,8.81-3.71,34.53,34.53,0,0,1,19.6,0,37.24,37.24,0,0,1,8.81,3.71,36.59,36.59,0,0,1,7.48,5.78,36.76,36.76,0,0,1,9.48,16.28A36.4,36.4,0,0,1,132.11,37Zm-14.19,0a22,22,0,0,0-1.8-8.84,22.57,22.57,0,0,0-12.07-12.07,22.68,22.68,0,0,0-17.71,0,23.33,23.33,0,0,0-7.22,4.85,22.62,22.62,0,0,0-4.88,7.22A22,22,0,0,0,72.45,37a21.67,21.67,0,0,0,1.79,8.8,23,23,0,0,0,12.1,12.07,22.68,22.68,0,0,0,17.71,0A22.62,22.62,0,0,0,111.27,53a23.43,23.43,0,0,0,4.85-7.19A21.68,21.68,0,0,0,117.92,37Z" style="fill:#606468"/></g><g style="mask:url(#mask)"><g id="Shadow"><path id="path1_fill" data-name="path1 fill" d="M96,48h36V59.67H96Z" style="fill:url(#linear-gradient)"/></g></g><g id="Mask-4" data-name="Mask"><path id="path2_fill-2" data-name="path2 fill" d="M146,88v14H112.67V87a11.38,11.38,0,0,1,2-6.6c2.41-3.53,12.41-6.58,11.41-6.42L96,74V59.65h33.42c9.27,0,16.58,5.83,16.58,13.66a12.42,12.42,0,0,1-2.26,7.09A17.79,17.79,0,0,1,132.46,88Z" style="fill:#606468"/></g><g style="mask:url(#mask-2)"><g id="Rectangle"><path id="path3_fill" data-name="path3 fill" d="M110,74h28V88H110Z" style="fill:url(#linear-gradient-2)"/></g></g><path id="path4_fill" data-name="path4 fill" d="M171,74a23,23,0,1,1,23-23A23,23,0,0,1,171,74Zm0-12a11,11,0,1,0-11-11A11,11,0,0,0,171,62Zm26,12h10.27V64.79l7-9.4L224.48,74H236L220.38,47.41,235,28H223.46L207.27,50V28H197Z" style="fill:#fff"/><g id="K" style="opacity:0.29444101452827454"><path id="path5_fill" data-name="path5 fill" d="M220.38,47.41,236,74H224.47L214.32,55.4Z" style="fill:url(#linear-gradient-3)"/></g><g id="Vector"><path id="path6_fill" data-name="path6 fill" d="M82.29,39.77l10.8,9.69A2.08,2.08,0,0,0,94.5,50a2.29,2.29,0,0,0,1.41-.54c4-3.81,10.1-9.48,10.8-10.13.12,0,.12-.11.24-.22A9.25,9.25,0,0,0,100.84,23a9,9,0,0,0-6.34,2.61A9.11,9.11,0,0,0,79,32.25,8.94,8.94,0,0,0,82.29,39.77Z" style="fill:#fff"/></g><path id="path7_fill" data-name="path7 fill" d="M108,32.36a7.3,7.3,0,0,0-7.16-7.4,7.1,7.1,0,0,0-6.34,3.92A7,7,0,0,0,88.16,25,7.23,7.23,0,0,0,81,32.36a7.22,7.22,0,0,0,2.82,6.1l10.8,9.8s11.27-10.56,10.92-10.13C106.94,36.39,108,35,108,32.36Z" style="fill:#fff"/></g></g></svg>