<?xml version="1.0" encoding="utf-8"?>
<!-- Generator: Adobe Illustrator 22.0.1, SVG Export Plug-In . SVG Version: 6.00 Build 0)  -->
<svg version="1.1" id="Layer_1" xmlns="http://www.w3.org/2000/svg" xmlns:xlink="http://www.w3.org/1999/xlink" x="0px" y="0px"
	 viewBox="0 0 234 102" style="enable-background:new 0 0 234 102;" xml:space="preserve">
<style type="text/css">
	.st0{fill:#FFFFFF;}
	.st1{fill:#606468;}
	.st2{fill:url(#path1_fill_6_);}
	.st3{fill:url(#path3_fill_4_);}
	.st4{opacity:0.2944;}
	.st5{filter:url(#Adobe_OpacityMaskFilter);}
	.st6{mask:url(#mask0_outline_2_);}
	.st7{fill:url(#path1_fill_7_);}
	.st8{filter:url(#Adobe_OpacityMaskFilter_1_);}
	.st9{mask:url(#mask1_outline_2_);}
	.st10{fill:url(#path3_fill_5_);}
</style>
<g id="Canvas_1_" transform="translate(-2698 -2827)">
	<g id="Laag_13.1">
		<g id="path3924_2">
			<g id="Group_3_">
				<g id="Vector">
					<g transform="translate(2698 2827)">
						<path id="path0_fill_1_" class="st0" d="M2793.3,2887c12.7,0,23-10.3,23-23s-10.3-23-23-23s-23,10.3-23,23
							S2780.6,2887,2793.3,2887z"/>
					</g>
				</g>
			</g>
		</g>
		<g id="path3089_1">
			<g id="Group_2_">
				<g id="Group_1_">
					<g id="Vector_1_">
						<g transform="translate(2725.78 2830.26)">
							<path id="path1_fill_1_" class="st0" d="M2798.7,2844.2l-0.5,0.3c0,0,0.3,0.1,0.3,0.2c0.1,0,0.3,0,0.3,0v0.3
								c0,0,0.5,0.2,0.4,0.3c0,0.1,0.8-0.1,0.8-0.1l0.8-0.3l0.2-0.3l-0.3-0.3l-1.5,0.2L2798.7,2844.2z"/>
						</g>
					</g>
					<g id="Vector_2_">
						<g transform="translate(2706.56 2828.01)">
							<path id="path2_fill_1_" class="st0" d="M2780.5,2845.2h0.3l0.8-0.3l0.6-0.4l0,0l-0.4,0.4l-0.1,0.1l-0.4,0.2h0.3v0.2h0.3
								l0.3-0.3l0.3,0.1l0.1,0.1h0.4v-0.3l-0.6-0.4l-0.1-0.1v-0.1h0.2l0.2,0.2l0.2-0.2h0.4l0.4-0.3v-0.2l0.3-0.3l-0.2-0.2h0.6h0.5
								c0,0,0.2-0.1,0.3,0c0,0.1,0.4,0.3,0.4,0.3l-0.1,0.1l-0.6,0.1l-0.1,0.3h0.4l0.3-0.3h0.4v0.3c0,0-0.4,0.2-0.5,0.2
								s-0.3,0.1-0.3,0.1v0.3h-0.4l-0.4-0.1h-0.2l-0.3,0.2l0.2,0.2c0,0,0.4-0.1,0.4-0.2c0,0,0.2-0.1,0.3,0c0,0.1,0.3,0.3,0.3,0.3
								l0.2,0.4l0.3,0.1l0.6,0.2l0.4,0.1v-0.2l-0.3-0.4c0,0,0-0.1,0.1-0.1s0.3,0.2,0.3,0.2l0.3,0.2l0.1-0.3l0.3-0.1l-0.1-0.2
								l-0.1-0.1l-0.1-0.2v-0.2c0,0,0,0,0.1,0l0.2-0.1l0.3,0.4h0.3l0.1-0.2h0.4v-0.2l0.3-0.1l-0.5-0.4h-0.3h-0.2l-0.2-0.2l0.2-0.2
								l0.1-0.3l-0.2-0.2h-0.4l-0.1-0.2h-0.3l-0.3-0.3l-0.1-0.2c-1.1,0.3-2.2,0.8-3.2,1.3v0.1l-0.3,0.2l-0.4,0.3l-0.3,0.1v-0.1
								c-1.1,0.6-2.2,1.4-3.2,2.2c0.5-0.2,1.4-0.7,1.4-0.7L2780.5,2845.2z"/>
						</g>
					</g>
					<g id="Vector_3_">
						<g transform="translate(2728.79 2834.19)">
							<path id="path3_fill_1_" class="st0" d="M2801.6,2849.7h0.2l0.2-0.1l0,0h0.3v-0.1l0.1-0.1v-0.4l0.2-0.1v-0.3l-0.3-0.1h-0.2
								h-0.1l-0.1,0.1l-0.1,0.1c0.1,0,0.1,0,0.1,0l-0.1,0.1h-0.1h-0.1h-0.1v0.1v0.1l-0.1,0.1l0.1,0.1h0.1v0.1h-0.1l-0.2,0.1v0.2
								l0.1,0.1L2801.6,2849.7z"/>
						</g>
					</g>
					<g id="Vector_4_">
						<g transform="translate(2730.02 2832.56)">
							<path id="path4_fill_1_" class="st0" d="M2802.6,2848.1C2802.6,2848.1,2802.7,2848.2,2802.6,2848.1c0.1,0.1,0.2,0.1,0.2,0.1
								h0.1l-0.1,0.1v0.1h0.1c0,0,0.2,0,0.3,0s0,0.1,0,0.1l0.1,0.1v0.2h-0.1h-0.2c0,0-0.1,0-0.2,0.1c0,0.1,0,0,0,0h0.1v0.1
								c0,0-0.1,0.1-0.1,0l-0.2,0.1v0.1h0.2h0.2l0,0c0,0-0.1,0-0.2,0l-0.1,0.1l-0.1,0.1l-0.2,0.2h0.1l0.1-0.1h0.2h0.2l0.1-0.1h0.3
								c0,0,0.2,0,0.3,0s0.2,0,0.2,0l0.4-0.1c0,0,0.1-0.1,0.1-0.2s-0.1-0.1-0.1-0.1s0.1,0,0.1-0.1s0.1-0.1,0.1-0.2c0,0,0-0.1,0-0.2
								c0,0-0.1,0-0.2,0h-0.2v-0.2c0,0-0.5-0.6-0.4-0.7l-0.1-0.2c0,0-0.1,0-0.2-0.1c0-0.1,0.1-0.2,0.1-0.2s0.1-0.2,0.2-0.2
								c0,0,0-0.1,0-0.2h-0.4l-0.1-0.1h0.1l0.2-0.3v-0.1h-0.1l-0.1,0.2c0,0-0.1,0-0.2,0s-0.1,0-0.2,0l-0.1,0.1c0,0-0.1,0.1-0.2,0.1
								l-0.2,0.2v0.1c0,0,0,0-0.1,0v0.2h0.1c0,0,0,0.1-0.1,0C2802.6,2847.9,2802.5,2848,2802.6,2848.1z"/>
						</g>
					</g>
					<g id="Vector_5_">
						<g transform="translate(2698 2831.5)">
							<path id="path5_fill_1_" class="st0" d="M2791.5,2872l-0.5-0.1c0,0-0.8-0.8-0.9-0.8c0,0-0.3-0.3-0.4-0.2
								c0,0.1-0.7,0.1-0.7,0.1l-0.6-0.1c0,0-0.3,0.2-0.2,0.1c0-0.1,0-0.6,0-0.5s-1-0.4-1-0.4l-0.3,0.3v-0.3l-0.5-0.3v-0.4l-0.2-0.2
								l0,0l-0.1-0.8l-0.8-0.6h-0.9l-0.8-0.4l-0.2-0.4c0,0-0.5-0.2-0.5-0.3c0,0-0.1,0-0.2,0v-0.2l-0.2-0.2h-0.1h-0.2l-0.1-0.2
								l0.4-0.2l-1,0.1l-0.1,0.2l-0.4-0.2h-0.7c0,0-0.5-0.2-0.5-0.3l-0.1-0.3l-0.1,0.3c0,0.1-0.4,0.4-0.4,0.4v0.5l-0.2-0.3l0.2-0.2
								v-0.3l0.2-0.1l-0.1-0.2c0,0-0.3,0-0.3,0.1s-0.3,0.2-0.3,0.2l-0.4,0.1h-0.2l-0.2,0.3v0.3l-0.5,0.5l-0.5-0.5l-0.6,0.1l-0.3,0.2
								l-0.4-0.3l-0.3-0.5v-0.6l0.2-0.7l0.1-0.4l-0.4-0.3c0,0-0.9,0.1-0.9,0s-0.5,0-0.5,0s0.2-0.3,0.2-0.4l0.1-0.4l0.2-0.4l0.2-0.7
								l0.1-0.2h-0.8l-0.4,0.2l-0.3,0.8l-1.2,0.3l-0.3-0.2c0,0,0,0.1,0,0s-0.4-0.6-0.4-0.6l-0.2-0.7l0.5-1.5v-0.5l1.6-1.1l0.6,0.1
								l0.1,0.1h0.4l0.4-0.4h0.5l0.5-0.1l0.3,0.3l0.4-0.1l0.2,0.2l0.1,0.1v0.2l-0.1,0.2l0.1,0.5l0.3,0.4l0.2,0.1l0.2-0.7v-0.6
								l-0.1-0.5v-0.3l0.6-0.8l0.8-0.6l0.6-0.3l0.5-0.6v-0.6h0.2l0.2-0.5h0.2l0.5-0.6l0.8-0.3l0.5-0.1l0.1-0.1l-0.2-0.2l0.4-0.5
								l1.1-0.5l0.7-0.2l-0.6,0.4l0.1,0.3l0.4-0.1l0.3-0.2l0.8-0.2l0.1-0.2c0,0.1,0.4-0.1,0.4-0.1l-0.1-0.2v-0.2l-0.2,0.1l-0.3,0.4
								h-0.6l-0.2-0.4l0.2-0.3l0.2-0.5l-0.4-0.1l-0.6,0.2l-0.6,0.3l-0.3,0.1l0.8-0.6h0.3l0.3-0.3h1.7l0.6-0.1l0.8-0.4v0.1l-0.3,0.3
								l-0.4,0.4l-0.4,0.4l-0.2,0.2h0.6h0.5l0.1,0.2l0.2-0.2l0.1,0.3l0.4-0.3l-0.1-0.4l0.1-0.4h-0.5v-0.2l-0.2-0.2l0.3-0.2l-0.1-0.1
								l0.3-0.4l-0.2-0.5l-0.1-0.2l-0.5-0.2l-0.1-0.2l-0.2-0.1l0.1-0.4l-0.1-0.3l-0.1-0.9l-0.6,0.5l-0.6,0.3l-0.3-0.2v-0.4l0.3-0.3
								l-0.5-0.1v-0.1l-0.4-0.4l-0.1,0.1l-1-0.1l-0.3,0.6l-0.1,0.3c0,0-0.5,0.5-0.6,0.6l0.3,0.2l-0.2,0.5l-0.9,0.5h-0.4
								c0,0-0.2,0.9-0.2,1s-0.3,0.2-0.3,0.2l-0.2,0.3l-0.1-0.3c0,0-0.1-0.2-0.1-0.3h0.3v-0.2h-0.2l0.1-0.3l0.2-0.4h-0.8l-0.2-0.2
								h-0.4v-0.1l-0.3-0.1l-0.3-0.2h-0.3v-0.3l0.1-0.3l-0.4-0.1c-4.6,4.1-7.5,10.1-7.6,16.7l0.4,0.1l0.6-0.2l0.4,0.2l0.6,0.7
								l0.6,0.1l0.6,0.2h0.3l0.1,0.3c0,0,0.3,0.3,0.3,0.4v0.4l0.2,0.1l0.3,0.3l0.2,0.2l0.2,0.2l0.1-0.1l0.3,0.1l0.4,0.3l0.2-0.1
								l-0.1-0.3l0.2-0.2h0.2l0.2,0.2v0.2l0.3,0.4v1.2l-0.2,0.4l-0.3,0.2v0.3l-0.3,0.1l-0.1,0.5l-0.2,0.4v0.3l0.3,0.3l-0.3,0.3
								l-0.2,0.3l0.2,0.6c0,0,0.1,0.3,0.1,0.2s0.3,0.2,0.3,0.2l0.5,1.1l0.5,0.7c0,0,0.7,1.5,0.8,1.5c0.2,0.1,1.8,1.3,1.8,1.3
								l0.3,1.4l0.1,3.1l0.2,0.9v0.4c1.2,0.9,2.6,1.6,4,2.2c0.1,0,0.3,0,0.3,0l0.7-0.2l0.2-0.5c0-0.1,0-0.3,0-0.3s0-0.2-0.1-0.2
								s-0.1-0.1-0.2-0.2c0-0.1-0.1-0.3-0.1-0.3h-0.2l0.2-0.2l0.4,0.3l0.6,0.1l0.5-0.5l0.3-0.8l0.1-0.6h0.3l0.3-0.6l0.1-0.5
								l-0.2-0.6l0.1-0.2l1.1-0.7l0.8-0.2l0.2-0.2c0,0,0.4-0.5,0.4-0.6s0.1-0.8,0.1-0.8s0.2-0.9,0.1-1v-0.9v-0.2l0.8-1.1l0.3-0.8
								c0,0,0.2-0.4,0.2-0.5C2791.7,2872.7,2791.5,2872,2791.5,2872z"/>
						</g>
					</g>
					<g id="Vector_6_">
						<g transform="translate(2718.27 2827)">
							<path id="path6_fill" class="st0" d="M2798.8,2843h0.5c0,0,0.1-0.6,0-0.7c-0.1,0,0.3-0.4,0.3-0.4s0,0,0.1,0
								c-2.1-0.6-4.2-0.9-6.5-0.9c-0.9,0-1.8,0-2.7,0.1h0.2c0,0,0.5,0.2,0.6,0.3s0,0.3,0,0.5c0,0.1-0.1,0.2-0.2,0.3
								c-0.1,0.2,0.2,0.1,0.2,0.1l0.4,0.2c0,0-0.1,0-0.3,0s-0.4,0.1-0.4,0.1v0.3l0.6-0.1v0.2l-0.4,0.1l-0.4,0.5v1l0.1,0.8l0.2,0.7
								h0.4l0.4,0.3h0.6l0.6-0.8l0.6-0.6l0.2-0.3l0.3-0.2l0.7-0.1l0.8-0.2c0,0,0.8-0.5,0.9-0.6
								C2796.7,2843.6,2798.8,2843,2798.8,2843z"/>
						</g>
					</g>
					<g id="Vector_7_">
						<g transform="translate(2725.83 2831.36)">
							<path id="path7_fill" class="st0" d="M2816.1,2860.7l-0.3-0.6c0,0-0.4-0.9-0.4-1s-0.2-0.3-0.1-0.3h0.4c0,0,0.1,0.1,0.2,0.2
								c-0.1-0.6-0.3-1.1-0.4-1.7c0,0,0,0.1-0.1,0.1c-0.1,0.1-0.3,0.2-0.4,0.1c-0.1-0.1-0.5,0-0.6,0s-0.5,0-0.6,0.1
								c0,0.1-0.4,0-0.5,0s-0.8-0.3-0.9-0.3s-0.4-0.2-0.5-0.2s-0.4-0.1-0.4-0.1v-0.1c0,0-0.5,0.1-0.5,0.2l-0.2,0.1
								c0,0-0.2,0.2-0.1,0.3c0,0.1,0.2,0.2,0.1,0.3c0,0.1-0.3,0.1-0.3,0.1s-0.2-0.2-0.3-0.2s-0.8-0.1-0.8-0.1l-0.3-0.3
								c0,0-0.4-0.3-0.5-0.3c0,0-0.5,0-0.6,0s-0.3-0.4-0.4-0.3c-0.1,0-0.1-0.2,0-0.2c0,0,0.2-0.3,0.1-0.3c0,0,0.1-0.3-0.1-0.4
								c-0.1-0.1,0-0.3,0-0.3h0.1h-0.3c0-0.1-0.1-0.1-0.1-0.1s-0.4,0.1-0.5,0.1s-0.4,0-0.5,0l0,0c-0.1,0-0.4,0.1-0.4,0.2
								s-0.3,0-0.3,0h-0.5l-0.7,0.1c0,0-0.5,0.2-0.5,0.3s-0.1,0.2-0.2,0.2h-0.3h-0.5c0,0-0.2-0.1-0.2,0s0-0.2,0-0.2l0.1-0.2l0.3-0.2
								l0.6-0.1l0.3-0.2l0.2-0.1l0.1-0.3c0,0,0.2,0,0.2-0.1l-0.1-0.2l0.4-0.7l0.6-0.3l0.1-0.2v-0.3l0.4-0.1l0.5,0.1l0.3-0.2l0.3-0.2
								c0,0,0-0.1,0.1-0.1s0.3,0,0.3,0.1s0.2,0.5,0.2,0.5l0.3,0.3l0.3,0.2l0.4,0.1c0,0,0.2,0.2,0.3,0.2l0.3,0.3l0.1,0.2
								c0,0,0,0.1-0.1,0.2c0,0.1-0.2,0.3-0.3,0.2l-0.4-0.1h-0.4v0.1c0.1,0.1,0.2,0,0.3,0.1c0.1,0,0.4,0.2,0.4,0.2s0.2,0,0.2,0.1
								s0-0.1,0-0.2c0-0.1,0-0.2,0.1-0.3c0.1,0,0.3,0,0.3,0v-0.1l0.1-0.1v-0.1l0.1-0.1l-0.1-0.1c0-0.1-0.1-0.1-0.1-0.2
								c0-0.1,0.2-0.2,0.3-0.1s0.3,0.1,0.3,0.1c0,0.1,0,0.2,0,0.1v-0.3c0,0-0.1-0.1-0.2-0.2c-0.1,0-0.4-0.1-0.4-0.2
								c-0.1,0-0.2-0.1-0.2-0.1v-0.1c0,0-0.3,0-0.3-0.1s-0.3-0.2-0.3-0.3l-0.2-0.4c0,0-0.1-0.1-0.1-0.2c0,0,0-0.1,0-0.2
								c0-0.1,0.3-0.4,0.3-0.4s0.1,0.1,0.1,0.2c0,0.1,0.3,0.4,0.3,0.4c0,0.1,0.3,0.3,0.4,0.4c0.1,0,0.1,0.1,0.3,0.2
								c0.1,0,0.1,0.1,0.3,0.2c0.2,0.1,0.2,0.1,0.2,0.1s0.1,0,0.2,0.1c0,0.1,0.1,0.1,0.1,0.1c0,0.1,0,0.1,0,0.2c0,0.1-0.1,0.2,0,0.2
								c0,0,0.3,0.6,0.4,0.6s0.4,0.1,0.4,0.3s0.2,0.4,0.2,0.4s0.2,0,0.3,0c0-0.1,0-0.3,0.1-0.3c0.1-0.1,0.3-0.1,0.3-0.2
								c0-0.1,0-0.2-0.2-0.3c-0.1-0.1-0.2-0.1-0.3-0.3c0-0.1-0.1-0.3,0-0.3s0.2,0.3,0.3,0.1c0-0.2,0.2-0.3,0.3-0.3s0.3,0.1,0.3,0.2
								l0.1,0.5c0,0,0,0,0.1,0.3s0.2,0.3,0.2,0.3c0,0.1-0.1,0.1,0.1,0.1c0.2,0,0.5,0,0.5,0.1l0.2,0.1c0,0,0.2,0.1,0.2,0
								s0.1-0.3,0.1-0.2s0.4,0,0.4,0.1s0.2,0.1,0.2,0.1c-0.3-0.7-0.6-1.3-0.9-2l-0.5-0.1l-0.3-0.1l-0.2-0.2h0.1v-0.2v-0.1l0.1-0.1
								l0.1-0.3c-0.9-1.4-1.9-2.8-3-4l-0.2,0.1c0,0-0.2,0.1-0.2,0l-0.1-0.2c0,0,0-0.1,0,0h-0.1l-0.2,0.1c0,0-0.1,0.1-0.2,0.1h-0.2
								c0,0-0.2,0.2-0.3,0.1h-0.1c0-0.1,0-0.2-0.1-0.2c0,0-0.2,0-0.2,0.1c0,0,0,0-0.1,0.1s-0.3,0.1-0.3,0.1l0,0l0.3-0.3l0.1-0.3
								c0,0,0.3,0,0.3,0.1c0,0,0.1-0.1,0.1,0c0.1,0,0.2,0,0.2,0.1c0,0,0,0.1,0.1,0.1v-0.2c0,0-0.1,0-0.1-0.1s0-0.1,0-0.1l0.2-0.1
								h0.2c0,0,0,0,0-0.1s0.1-0.3,0.1-0.3s-0.1,0-0.1-0.1l0,0c-0.8-0.8-1.6-1.4-2.5-2.1c-0.1,0-0.3,0.1-0.3,0.1l-0.4,0.4l-0.1,0.2
								v0.6c0,0,0.2,0,0.2,0.1v0.4l0.3,0.2l0.4,0.1l0.2-0.1c0,0,0.2-0.2,0.3-0.2c0,0,0.2-0.2,0.3-0.1c0,0,0,0.3,0.1,0.4
								c0,0,0.2,0.1,0.2,0.3c0,0.1,0.1,0.3,0.1,0.3l-0.1,0.1c0,0-0.3,0-0.3,0.1h-0.1c0,0,0.1-0.1,0.1-0.2c0,0,0-0.2-0.1-0.2
								s-0.1-0.1,0-0.1v-0.2c0,0,0,0-0.1,0l-0.4,0.1l-0.2,0.2c0,0-0.1,0.2,0,0.4s0.2,0.4,0.2,0.4l0.1,0.1l-0.1,0.2h-0.2
								c0,0-0.4,0-0.5,0.1c0,0-0.4,0.1-0.4,0.2l-0.1,0.5c0,0-0.4,0.3-0.5,0.3s-0.3,0.1-0.3,0.1s-0.1,0.4-0.1,0.3l-0.5,0.2
								c0,0-0.8-0.2-0.8-0.3s-0.1-0.1-0.1-0.1s0.1,0.3,0.1,0.4c0,0,0,0.2,0,0.1c0,0-0.2-0.1-0.3-0.1h-0.4h-0.1l-0.2,0.1v0.1l0.1,0.1
								l0.3,0.1l0.3,0.2l0.1,0.3l0.1,0.3l-0.1,0.6l-0.2,0.2h-0.7c0,0-0.3,0-0.3-0.1h-0.5h-0.1v-0.1h-0.2l-0.2,0.2h-0.2v0.2l0.1,0.4
								v0.5c0,0-0.2,0.4-0.2,0.5v0.3l0.1,0.2v0.2c0,0-0.1,0.2,0,0.2c0,0,0.3,0,0.4,0c0,0,0.2-0.1,0.2,0c0,0,0.1,0,0.2,0.1
								c0,0.1,0.1,0.3,0.1,0.3h0.1v0.1l0,0l-0.2,0.6l-0.5,0.4l-0.3,0.2l-0.1,0.2l-0.1,0.1v0.3v0.4l-0.7,0.7l-0.4,0.1l-0.2,0.4
								l-0.3,0.3l-0.2,0.2c0,0,0.1,0.3,0.1,0.2c0,0,0.2,0.3,0.2,0.4c0.3,1,0.5,1.4,0.3,2.3c-0.1,0.8-0.8,1.9-1.3,2.4v0.1
								c0,0,0.1,0.1,0.2,0.1s0.3,0.2,0.4,0.2s0.4,0.5,0.4,0.5v0.1l0.2,0.6l0.9,0.7l0.9,0.7l0.7-0.3h0.6h0.4l0.3,0.1l1-0.5l0.2-0.1
								h0.8l0.4,0.1l0.2,0.4c0,0,0.1,0.3,0.2,0.3c0,0,0.9-0.1,0.9,0l0.4,0.4v0.3v0.6l-0.1,0.3l-0.1,0.3v0.2l0.9,1.3l0.2,0.5l0.3,0.7
								l0.1,0.4l-0.1,0.2l0.2,0.7l-0.1,0.7l-0.4,0.9l-0.2,0.6v0.8l0.5,1l0.5,1.1v1.2l0.2,0.4c4.4-4.2,7.2-10.1,7.2-16.7
								C2816.3,2862.9,2816.2,2861.8,2816.1,2860.7z"/>
						</g>
					</g>
					<g id="Vector_8_">
						<g transform="translate(2705.94 2848.04)">
							<path id="path8_fill" class="st0" d="M2778.5,2862.8c0.1,0,0.2,0,0.2,0h0.2c0,0,0,0.1,0,0.2s0.3,0,0.3,0l0.1-0.1l0.4-0.1h0.5
								c0,0,0.1-0.1,0-0.2c-0.1-0.1-0.3-0.2-0.4-0.3c0-0.1-0.3,0-0.4,0c-0.1,0-0.5-0.1-0.6-0.1s0,0.1,0,0.1v0.4h-0.5l0,0
								c0,0-0.1,0-0.1,0.1C2778.3,2862.8,2778.4,2862.8,2778.5,2862.8z"/>
						</g>
					</g>
					<g id="Vector_9_">
						<g transform="translate(2702.69 2846.79)">
							<path id="path9_fill" class="st0" d="M2778.6,2861.8c0,0-0.2-0.1-0.3-0.1s-0.5-0.4-0.6-0.5c0-0.1-1-0.3-1-0.3s-1.1,0-1.1-0.1
								s-0.5,0.4-0.5,0.4l0,0v0.2c0,0,0.3-0.2,0.4-0.3c0-0.1,0.3-0.1,0.3-0.2s0.1,0.1,0.1,0.1l0.3,0.1l0.5,0.2l0.2,0.2l0.1,0.5h0.4
								l0.8-0.1C2778.3,2862,2778.6,2861.9,2778.6,2861.8z"/>
						</g>
					</g>
				</g>
			</g>
		</g>
	</g>
</g>
<g id="Canvas_2_" transform="translate(-2710 -2840)">
	<g id="Laag_22">
		<g id="Group_4_">
			<g id="Group_5_">
				<g id="Vector_11_">
					<g transform="translate(2710 2840)">
						<path id="path0_fill_3_" class="st0" d="M2796.7,2880.7l7.7,6.8c0.2,0.2,0.6,0.4,1,0.4c0.3,0,0.8-0.2,1-0.4
							c2.8-2.7,7.2-6.7,7.7-7.1c0.1,0,0.1-0.1,0.2-0.2c1.1-1.1,2.2-2.5,2.2-4.8c0-3.6-2.9-6.5-6.5-6.5c-1.7,0-3.3,0.7-4.5,1.8
							c-1.2-1.1-2.8-1.8-4.5-1.8c-3.6,0-6.5,2.9-6.5,6.5C2794.3,2877.7,2795.2,2879.6,2796.7,2880.7z"/>
					</g>
				</g>
			</g>
			<g id="Vector_10_">
				<g transform="translate(2711.42 2841.38)">
					<path id="path1_fill_2_" class="st0" d="M2814.9,2875.5c0-2.8-2.2-5.2-5.1-5.2c-2,0-3.7,1.1-4.5,2.8c-0.8-1.7-2.6-2.8-4.5-2.8
						c-2.8,0-5.1,2.3-5.1,5.2c0,1.8,0.7,3.4,2,4.3l7.7,6.9c0,0,8-7.4,7.7-7.1C2814.2,2878.4,2814.9,2877.4,2814.9,2875.5z"/>
				</g>
			</g>
		</g>
	</g>
</g>
<title>Logo</title>
<desc>Created using Figma</desc>
<g id="Typo">
	<g id="CO_3_">
		<g id="CO">
			<g transform="translate(2626 2813)">
				<path id="path0_fill" class="st1" d="M61,65.1c-3.3,2.9-7,5-11.2,6.6C45.7,73.2,41.4,74,37,74c-3.4,0-6.7-0.5-9.8-1.4
					s-6.1-2.1-8.8-3.7s-5.2-3.5-7.5-5.8s-4.2-4.8-5.8-7.5s-2.9-5.7-3.7-8.8C0.4,43.7,0,40.4,0,37s0.4-6.7,1.3-9.8
					C2.2,24,3.4,21.1,5,18.4s3.5-5.2,5.8-7.5s4.8-4.2,7.5-5.8s5.7-2.9,8.8-3.7C30.4,0.4,33.6,0,37,0c4.4,0,8.7,0.8,12.8,2.3
					C54,3.8,57.7,6,61,8.9l-7.6,12.5c-2.1-2.3-4.6-4-7.4-5.2c-2.9-1.2-5.9-1.8-9-1.8c-3.2,0-6.1,0.6-8.9,1.8s-5.2,2.8-7.2,4.9
					s-3.7,4.4-4.9,7.2s-1.8,5.7-1.8,8.8s0.6,6.1,1.8,8.8s2.8,5.1,4.9,7.2c2.1,2.1,4.5,3.7,7.2,4.9c2.8,1.2,5.7,1.8,8.9,1.8
					c3.1,0,6.1-0.6,9-1.8s5.3-2.9,7.4-5.2L61,65.1z M132.1,37c0,3.4-0.4,6.6-1.3,9.8c-0.9,3.1-2.1,6.1-3.7,8.8
					c-1.6,2.7-3.5,5.2-5.8,7.5c-2.3,2.3-4.7,4.2-7.5,5.8c-2.7,1.6-5.7,2.9-8.8,3.7c-3.2,0.9-6.4,1.4-9.8,1.4s-6.6-0.5-9.8-1.4
					c-3.1-0.9-6.1-2.1-8.8-3.7c-2.7-1.6-5.2-3.5-7.5-5.8s-4.2-4.8-5.8-7.5c-1.6-2.7-2.9-5.7-3.7-8.8c-0.9-3.1-1.3-6.4-1.3-9.8
					c0-3.4,0.4-6.7,1.3-9.8c0.9-3.2,2.1-6.1,3.7-8.8s3.5-5.2,5.8-7.5s4.8-4.2,7.5-5.8s5.7-2.8,8.8-3.7C88.6,0.5,91.8,0,95.2,0
					c3.4,0,6.7,0.5,9.8,1.4c3.2,0.9,6.1,2.1,8.8,3.7s5.2,3.5,7.5,5.8s4.2,4.7,5.8,7.5c1.6,2.7,2.8,5.7,3.7,8.8
					C131.7,30.3,132.1,33.6,132.1,37z M117.9,37c0-3.1-0.6-6.1-1.8-8.8c-1.2-2.8-2.8-5.2-4.9-7.2s-4.4-3.7-7.2-4.9
					c-2.8-1.2-5.7-1.8-8.8-1.8c-3.2,0-6.1,0.6-8.9,1.8s-5.2,2.8-7.2,4.9s-3.7,4.4-4.9,7.2C73,31,72.4,33.9,72.4,37s0.6,6.1,1.8,8.8
					c1.2,2.7,2.8,5.1,4.9,7.2c2.1,2.1,4.5,3.7,7.2,4.9c2.8,1.2,5.7,1.8,8.9,1.8c3.1,0,6.1-0.6,8.8-1.8c2.8-1.2,5.2-2.8,7.2-4.9
					c2-2.1,3.7-4.5,4.9-7.2S117.9,40.1,117.9,37z"/>
			</g>
		</g>
		<g id="Shadow">
			<g transform="translate(2722 2861)">
				
					<linearGradient id="path1_fill_6_" gradientUnits="userSpaceOnUse" x1="-4359.0684" y1="-2916.2212" x2="-4358.0684" y2="-2916.2212" gradientTransform="matrix(-16.6346 14.438 -44.5389 -5.3924 -202281.9219 47264.0234)">
					<stop  offset="0" style="stop-color:#000000;stop-opacity:1.000000e-02"/>
					<stop  offset="1" style="stop-color:#000000"/>
				</linearGradient>
				<path id="path1_fill" class="st2" d="M96,48h36v11.7H96V48z"/>
			</g>
		</g>
	</g>
	<g id="_x32_">
		<g id="Mask">
			<g transform="translate(2722 2872.65)">
				<path id="path2_fill" class="st1" d="M146,88v14h-33.3V87c0-2.5,0.6-4.6,2-6.6c2.4-3.5,12.4-6.6,11.4-6.4H96V59.6h33.4
					c9.3,0,16.6,5.8,16.6,13.7c0,2.6-0.8,5-2.3,7.1c-2.4,3.5-6.5,6.8-11.3,7.6C132.4,88,146,88,146,88z"/>
			</g>
		</g>
		<g id="Rectangle">
			<g transform="translate(2736 2887)">
				
					<linearGradient id="path3_fill_4_" gradientUnits="userSpaceOnUse" x1="-4386.4824" y1="-2948.0144" x2="-4385.4824" y2="-2948.0144" gradientTransform="matrix(-12.938 17.3207 -34.6413 -6.469 -158750.7969 56986.4844)">
					<stop  offset="0" style="stop-color:#000000;stop-opacity:1.000000e-02"/>
					<stop  offset="1" style="stop-color:#000000"/>
				</linearGradient>
				<path id="path3_fill" class="st3" d="M110,74h28v14h-28V74z"/>
			</g>
		</g>
	</g>
</g>
<g id="OK">
	<g id="Combined_Shape">
		<g transform="translate(2772 2827)">
			<path id="path4_fill" class="st0" d="M169,60c-12.7,0-23-10.3-23-23s10.3-23,23-23s23,10.3,23,23S181.7,60,169,60z M169,48
				c6.1,0,11-4.9,11-11s-4.9-11-11-11s-11,4.9-11,11S162.9,48,169,48z M195,60h10.3v-9.2l7.1-9.4L222.5,60H234l-15.6-26.6L233,14
				h-11.5l-16.2,22V14H195V60z"/>
		</g>
	</g>
	<g id="Group">
		<g id="K" class="st4">
			<g transform="translate(2838.32 2846.41)">
				<path id="path5_fill" class="st0" d="M218.4,33.4L234,60h-11.5l-10.2-18.6L218.4,33.4z"/>
			</g>
		</g>
	</g>
</g>
<g id="Canvas_4_" transform="translate(-2698 -2827)">
	<g id="Laag_13.1_1_">
		<g id="path3924_2_1_">
			<g id="Group_11_">
				<g id="Vector_23_">
					<g transform="translate(2698 2827)">
						<path id="path0_fill_6_" class="st0" d="M2793.3,2888c12.7,0,23-10.3,23-23c0-12.7-10.3-23-23-23c-12.7,0-23,10.3-23,23
							C2770.3,2877.7,2780.6,2888,2793.3,2888z"/>
					</g>
				</g>
			</g>
		</g>
		<g id="path3089_1_1_">
			<g id="Group_9_">
				<g id="Group_10_">
					<g id="Vector_22_">
						<g transform="translate(2725.78 2830.26)">
							<path id="path1_fill_5_" class="st0" d="M2798.7,2845.2l-0.5,0.3c0,0,0.3,0.1,0.3,0.2c0.1,0,0.3,0,0.3,0v0.3
								c0,0,0.5,0.2,0.4,0.3c0,0.1,0.8-0.1,0.8-0.1l0.8-0.3l0.2-0.3l-0.3-0.3l-1.5,0.2L2798.7,2845.2z"/>
						</g>
					</g>
					<g id="Vector_21_">
						<g transform="translate(2706.56 2828.01)">
							<path id="path2_fill_4_" class="st0" d="M2780.5,2846.2l0.3,0l0.8-0.3l0.6-0.4l0,0l-0.4,0.4l-0.1,0.1l-0.4,0.2l0.3,0l0,0.2
								l0.3,0l0.3-0.3l0.3,0.1l0.1,0.1h0.4v-0.3l-0.6-0.4l-0.1-0.1l0-0.1l0.2,0l0.2,0.2l0.2-0.2l0.4,0l0.4-0.3v-0.2l0.3-0.3
								l-0.2-0.2h0.6h0.5c0,0,0.2-0.1,0.3,0c0,0.1,0.4,0.3,0.4,0.3l-0.1,0.1l-0.6,0.1l-0.1,0.3l0.4,0l0.3-0.3l0.4,0l0,0.3
								c0,0-0.4,0.2-0.5,0.2s-0.3,0.1-0.3,0.1v0.3l-0.4,0l-0.4-0.1h-0.2l-0.3,0.2l0.2,0.2c0,0,0.4-0.1,0.4-0.2c0,0,0.2-0.1,0.3,0
								c0,0.1,0.3,0.3,0.3,0.3l0.2,0.4l0.3,0.1l0.6,0.2c0,0,0.4,0.1,0.4,0.1c0,0,0-0.2,0-0.2l-0.3-0.4c0,0,0-0.1,0.1-0.1
								c0.1,0,0.3,0.2,0.3,0.2c0,0,0.3,0.2,0.3,0.2l0.1-0.3l0.3-0.1l-0.1-0.2l-0.1-0.1l-0.1-0.2v-0.2c0,0,0,0,0.1,0
								c0,0,0.2-0.1,0.2-0.1c0,0,0.3,0.4,0.3,0.4l0.3,0l0.1-0.2l0.4,0l0-0.2l0.3-0.1l-0.5-0.4l-0.3,0l-0.2,0l-0.2-0.2l0.2-0.2
								l0.1-0.3l-0.2-0.2l-0.4,0l-0.1-0.2c0,0-0.3,0-0.3,0c0,0-0.3-0.3-0.3-0.3l-0.1-0.2c-1.1,0.3-2.2,0.8-3.2,1.3l0,0.1l-0.3,0.2
								l-0.4,0.3l-0.3,0.1l0-0.1c-1.1,0.6-2.2,1.4-3.2,2.2c0.5-0.2,1.4-0.7,1.4-0.7L2780.5,2846.2z"/>
						</g>
					</g>
					<g id="Vector_20_">
						<g transform="translate(2728.79 2834.19)">
							<path id="path3_fill_3_" class="st0" d="M2801.6,2850.7l0.2,0l0.2-0.1l0,0l0.3,0l0-0.1l0.1-0.1v-0.4l0.2-0.1l0-0.3l-0.3-0.1
								l-0.2,0l-0.1,0l-0.1,0.1l-0.1,0.1c0.1,0,0.1,0,0.1,0c0,0-0.1,0.1-0.1,0.1h-0.1l-0.1,0h-0.1l0,0.1l0,0.1l-0.1,0.1l0.1,0.1
								l0.1,0v0.1h-0.1l-0.2,0.1l0,0.2l0.1,0.1L2801.6,2850.7z"/>
						</g>
					</g>
					<g id="Vector_19_">
						<g transform="translate(2730.02 2832.56)">
							<path id="path4_fill_3_" class="st0" d="M2802.6,2849.1C2802.6,2849.1,2802.7,2849.2,2802.6,2849.1c0.1,0.1,0.2,0.1,0.2,0.1
								l0.1,0l-0.1,0.1c0,0,0,0.1,0,0.1c0,0,0.1,0,0.1,0s0.2,0,0.3,0s0,0.1,0,0.1l0.1,0.1c0,0,0,0.2,0,0.2s-0.1,0-0.1,0
								s-0.2,0-0.2,0c0,0-0.1,0-0.2,0.1c0,0.1,0,0,0,0h0.1c0,0,0,0.1,0,0.1s-0.1,0.1-0.1,0c0,0-0.2,0.1-0.2,0.1v0.1l0.2,0l0.2,0l0,0
								c0,0-0.1,0-0.2,0c0,0-0.1,0.1-0.1,0.1l-0.1,0.1l-0.2,0.2l0.1,0l0.1-0.1h0.2l0.2,0l0.1-0.1c0,0,0.3,0,0.3,0s0.2,0,0.3,0
								s0.2,0,0.2,0c0,0,0.4-0.1,0.4-0.1s0.1-0.1,0.1-0.2s-0.1-0.1-0.1-0.1c0,0,0.1,0,0.1-0.1s0.1-0.1,0.1-0.2c0,0,0-0.1,0-0.2
								c0,0-0.1,0-0.2,0c0,0-0.2,0-0.2,0v-0.2c0,0-0.5-0.6-0.4-0.7c0,0-0.1-0.2-0.1-0.2s-0.1,0-0.2-0.1c0-0.1,0.1-0.2,0.1-0.2
								s0.1-0.2,0.2-0.2c0,0,0-0.1,0-0.2c0,0-0.4,0-0.4,0l-0.1-0.1c0,0,0.1,0,0.1,0s0.2-0.3,0.2-0.3c0,0,0-0.1,0-0.1l-0.1,0
								l-0.1,0.2c0,0-0.1,0-0.2,0s-0.1,0-0.2,0c0,0-0.1,0.1-0.1,0.1s-0.1,0.1-0.2,0.1c0,0-0.2,0.2-0.2,0.2v0.1c0,0,0,0-0.1,0
								c0,0,0,0.2,0,0.2l0.1,0c0,0,0,0.1-0.1,0C2802.6,2848.9,2802.5,2849,2802.6,2849.1z"/>
						</g>
					</g>
					<g id="Vector_18_">
						<g transform="translate(2698 2831.5)">
							<path id="path5_fill_3_" class="st0" d="M2791.5,2873c0,0-0.5-0.1-0.5-0.1s-0.8-0.8-0.9-0.8c0,0-0.3-0.3-0.4-0.2
								c0,0.1-0.7,0.1-0.7,0.1l-0.6-0.1c0,0-0.3,0.2-0.2,0.1c0-0.1,0-0.6,0-0.5s-1-0.4-1-0.4l-0.3,0.3v-0.3l-0.5-0.3l0-0.4l-0.2-0.2
								c0,0,0,0,0,0s-0.1-0.8-0.1-0.8l-0.8-0.6l-0.9,0l-0.8-0.4l-0.2-0.4c0,0-0.5-0.2-0.5-0.3c0,0-0.1,0-0.2,0c0,0,0-0.2,0-0.2
								l-0.2-0.2l-0.1,0l-0.2,0l-0.1-0.2c0,0,0.4-0.2,0.4-0.2s-1,0.1-1,0.1l-0.1,0.2l-0.4-0.2l-0.7,0c0,0-0.5-0.2-0.5-0.3
								c0,0-0.1-0.3-0.1-0.3s-0.1,0.3-0.1,0.3c0,0.1-0.4,0.4-0.4,0.4l0,0.5l-0.2-0.3l0.2-0.2v-0.3c0,0,0.2-0.1,0.2-0.1l-0.1-0.2
								c0,0-0.3,0-0.3,0.1s-0.3,0.2-0.3,0.2l-0.4,0.1h-0.2c0,0-0.2,0.3-0.2,0.3s0,0.3,0,0.3s-0.5,0.5-0.5,0.5c0,0-0.5-0.5-0.5-0.5
								l-0.6,0.1l-0.3,0.2l-0.4-0.3l-0.3-0.5l0-0.6l0.2-0.7l0.1-0.4l-0.4-0.3c0,0-0.9,0.1-0.9,0s-0.5,0-0.5,0c0,0,0.2-0.3,0.2-0.4
								c0,0,0.1-0.4,0.1-0.4l0.2-0.4l0.2-0.7l0.1-0.2l-0.8,0l-0.4,0.2l-0.3,0.8l-1.2,0.3l-0.3-0.2c0,0,0,0.1,0,0
								c0-0.1-0.4-0.6-0.4-0.6l-0.2-0.7c0,0,0.5-1.5,0.5-1.5c0,0,0-0.5,0-0.5l1.6-1.1l0.6,0.1l0.1,0.1l0.4,0l0.4-0.4l0.5,0l0.5-0.1
								l0.3,0.3l0.4-0.1l0.2,0.2l0.1,0.1v0.2l-0.1,0.2l0.1,0.5l0.3,0.4l0.2,0.1l0.2-0.7l0-0.6l-0.1-0.5v-0.3l0.6-0.8l0.8-0.6
								l0.6-0.3l0.5-0.6l0-0.6l0.2,0l0.2-0.5l0.2,0l0.5-0.6l0.8-0.3l0.5-0.1l0.1-0.1l-0.2-0.2l0.4-0.5l1.1-0.5l0.7-0.2l-0.6,0.4
								l0.1,0.3l0.4-0.1l0.3-0.2l0.8-0.2l0.1-0.2c0,0.1,0.4-0.1,0.4-0.1l-0.1-0.2l0-0.2l-0.2,0.1l-0.3,0.4l-0.6,0l-0.2-0.4l0.2-0.3
								c0,0,0.2-0.5,0.2-0.5c0,0-0.4-0.1-0.4-0.1l-0.6,0.2c0,0-0.6,0.3-0.6,0.3c0,0-0.3,0.1-0.3,0.1l0.8-0.6l0.3,0l0.3-0.3h1.7
								l0.6-0.1l0.8-0.4l0,0.1l-0.3,0.3l-0.4,0.4l-0.4,0.4l-0.2,0.2l0.6,0c0,0,0.5,0,0.5,0s0.1,0.2,0.1,0.2l0.2-0.2l0.1,0.3l0.4-0.3
								l-0.1-0.4l0.1-0.4h-0.5v-0.2c0,0-0.2-0.2-0.2-0.2s0.3-0.2,0.3-0.2c0,0-0.1-0.1-0.1-0.1l0.3-0.4l-0.2-0.5l-0.1-0.2l-0.5-0.2
								l-0.1-0.2l-0.2-0.1l0.1-0.4l-0.1-0.3l-0.1-0.9c0,0-0.6,0.5-0.6,0.5l-0.6,0.3l-0.3-0.2l0-0.4l0.3-0.3l-0.5-0.1l0-0.1
								c0,0-0.4-0.4-0.4-0.4c0,0-0.1,0.1-0.1,0.1l-1-0.1l-0.3,0.6l-0.1,0.3c0,0-0.5,0.5-0.6,0.6c0,0,0.3,0.2,0.3,0.2l-0.2,0.5
								l-0.9,0.5l-0.4,0c0,0-0.2,0.9-0.2,1s-0.3,0.2-0.3,0.2l-0.2,0.3l-0.1-0.3c0,0-0.1-0.2-0.1-0.3c0,0,0.3,0,0.3,0l0-0.2h-0.2
								l0.1-0.3l0.2-0.4l-0.8,0l-0.2-0.2l-0.4,0l0-0.1l-0.3-0.1l-0.3-0.2l-0.3,0v-0.3l0.1-0.3l-0.4-0.1c-4.6,4.1-7.5,10.1-7.6,16.7
								l0.4,0.1l0.6-0.2l0.4,0.2l0.6,0.7l0.6,0.1l0.6,0.2h0.3l0.1,0.3c0,0,0.3,0.3,0.3,0.4c0,0,0,0.4,0,0.4l0.2,0.1l0.3,0.3l0.2,0.2
								l0.2,0.2l0.1-0.1l0.3,0.1l0.4,0.3l0.2-0.1l-0.1-0.3l0.2-0.2h0.2l0.2,0.2v0.2l0.3,0.4v1.2l-0.2,0.4l-0.3,0.2v0.3l-0.3,0.1
								l-0.1,0.5l-0.2,0.4l0,0.3l0.3,0.3l-0.3,0.3l-0.2,0.3l0.2,0.6c0,0,0.1,0.3,0.1,0.2s0.3,0.2,0.3,0.2l0.5,1.1l0.5,0.7
								c0,0,0.7,1.5,0.8,1.5c0.2,0.1,1.8,1.3,1.8,1.3l0.3,1.4l0.1,3.1l0.2,0.9l0,0.4c1.2,0.9,2.6,1.6,4,2.2c0.1,0,0.3,0,0.3,0
								l0.7-0.2c0,0,0.2-0.5,0.2-0.5c0-0.1,0-0.3,0-0.3s0-0.2-0.1-0.2s-0.1-0.1-0.2-0.2c0-0.1-0.1-0.3-0.1-0.3l-0.2,0l0.2-0.2
								l0.4,0.3l0.6,0.1l0.5-0.5l0.3-0.8l0.1-0.6h0.3l0.3-0.6l0.1-0.5l-0.2-0.6l0.1-0.2l1.1-0.7l0.8-0.2l0.2-0.2
								c0,0,0.4-0.5,0.4-0.6s0.1-0.8,0.1-0.8s0.2-0.9,0.1-1c0,0,0-0.9,0-0.9s0-0.2,0-0.2l0.8-1.1l0.3-0.8c0,0,0.2-0.4,0.2-0.5
								C2791.7,2873.7,2791.5,2873,2791.5,2873z"/>
						</g>
					</g>
					<g id="Vector_17_">
						<g transform="translate(2718.27 2827)">
							<path id="path6_fill_1_" class="st0" d="M2798.8,2844l0.5,0c0,0,0.1-0.6,0-0.7c-0.1,0,0.3-0.4,0.3-0.4s0,0,0.1,0
								c-2.1-0.6-4.2-0.9-6.5-0.9c-0.9,0-1.8,0-2.7,0.1l0.2,0c0,0,0.5,0.2,0.6,0.3c0.1,0.1,0,0.3,0,0.5c0,0.1-0.1,0.2-0.2,0.3
								c-0.1,0.2,0.2,0.1,0.2,0.1l0.4,0.2c0,0-0.1,0-0.3,0c-0.2,0-0.4,0.1-0.4,0.1l0,0.3l0.6-0.1l0,0.2l-0.4,0.1l-0.4,0.5l0,1
								l0.1,0.8l0.2,0.7l0.4,0l0.4,0.3l0.6,0l0.6-0.8l0.6-0.6l0.2-0.3l0.3-0.2l0.7-0.1l0.8-0.2c0,0,0.8-0.5,0.9-0.6
								C2796.7,2844.6,2798.8,2844,2798.8,2844z"/>
						</g>
					</g>
					<g id="Vector_16_">
						<g transform="translate(2725.83 2831.36)">
							<path id="path7_fill_1_" class="st0" d="M2816.1,2861.7l-0.3-0.6c0,0-0.4-0.9-0.4-1s-0.2-0.3-0.1-0.3c0,0,0.4,0,0.4,0
								s0.1,0.1,0.2,0.2c-0.1-0.6-0.3-1.1-0.4-1.7c0,0,0,0.1-0.1,0.1c-0.1,0.1-0.3,0.2-0.4,0.1c-0.1-0.1-0.5,0-0.6,0s-0.5,0-0.6,0.1
								c0,0.1-0.4,0-0.5,0s-0.8-0.3-0.9-0.3s-0.4-0.2-0.5-0.2s-0.4-0.1-0.4-0.1s0-0.1,0-0.1c0,0-0.5,0.1-0.5,0.2
								c0,0-0.2,0.1-0.2,0.1s-0.2,0.2-0.1,0.3c0,0.1,0.2,0.2,0.1,0.3c0,0.1-0.3,0.1-0.3,0.1s-0.2-0.2-0.3-0.2
								c-0.1,0-0.8-0.1-0.8-0.1l-0.3-0.3c0,0-0.4-0.3-0.5-0.3c0,0-0.5,0-0.6,0s-0.3-0.4-0.4-0.3c-0.1,0-0.1-0.2,0-0.2
								c0,0,0.2-0.3,0.1-0.3c0,0,0.1-0.3-0.1-0.4c-0.1-0.1,0-0.3,0-0.3s0.1,0,0.1,0s-0.3,0-0.3,0c0-0.1-0.1-0.1-0.1-0.1
								c0,0-0.4,0.1-0.5,0.1s-0.4,0-0.5,0c0,0,0,0,0,0c-0.1,0-0.4,0.1-0.4,0.2s-0.3,0-0.3,0c0,0-0.5,0-0.5,0l-0.7,0.1
								c0,0-0.5,0.2-0.5,0.3c0,0.1-0.1,0.2-0.2,0.2c0,0-0.3,0-0.3,0c0,0-0.5,0-0.5,0s-0.2-0.1-0.2,0s0-0.2,0-0.2l0.1-0.2l0.3-0.2
								l0.6-0.1l0.3-0.2l0.2-0.1l0.1-0.3c0,0,0.2,0,0.2-0.1c0,0-0.1-0.2-0.1-0.2l0.4-0.7l0.6-0.3l0.1-0.2c0,0,0-0.3,0-0.3
								c0,0,0.4-0.1,0.4-0.1l0.5,0.1c0,0,0.3-0.2,0.3-0.2c0,0,0.3-0.2,0.3-0.2s0-0.1,0.1-0.1s0.3,0,0.3,0.1c0,0.1,0.2,0.5,0.2,0.5
								l0.3,0.3l0.3,0.2l0.4,0.1c0,0,0.2,0.2,0.3,0.2c0,0,0.3,0.3,0.3,0.3l0.1,0.2c0,0,0,0.1-0.1,0.2c0,0.1-0.2,0.3-0.3,0.2
								c0,0-0.4-0.1-0.4-0.1l-0.4,0c0,0,0,0.1,0,0.1c0.1,0.1,0.2,0,0.3,0.1c0.1,0,0.4,0.2,0.4,0.2s0.2,0,0.2,0.1s0-0.1,0-0.2
								c0-0.1,0-0.2,0.1-0.3c0.1,0,0.3,0,0.3,0s0-0.1,0-0.1l0.1-0.1v-0.1l0.1-0.1c0,0-0.1-0.1-0.1-0.1c0-0.1-0.1-0.1-0.1-0.2
								c0-0.1,0.2-0.2,0.3-0.1s0.3,0.1,0.3,0.1c0,0.1,0,0.2,0,0.1c0,0,0-0.3,0-0.3s-0.1-0.1-0.2-0.2c-0.1,0-0.4-0.1-0.4-0.2
								c-0.1,0-0.2-0.1-0.2-0.1s0-0.1,0-0.1s-0.3,0-0.3-0.1s-0.3-0.2-0.3-0.3c0,0-0.2-0.4-0.2-0.4s-0.1-0.1-0.1-0.2c0,0,0-0.1,0-0.2
								c0-0.1,0.3-0.4,0.3-0.4s0.1,0.1,0.1,0.2c0,0.1,0.3,0.4,0.3,0.4c0,0.1,0.3,0.3,0.4,0.4c0.1,0,0.1,0.1,0.3,0.2
								c0.1,0,0.1,0.1,0.3,0.2c0.2,0.1,0.2,0.1,0.2,0.1c0,0,0.1,0,0.2,0.1c0,0.1,0.1,0.1,0.1,0.1c0,0.1,0,0.1,0,0.2
								c0,0.1-0.1,0.2,0,0.2c0,0,0.3,0.6,0.4,0.6s0.4,0.1,0.4,0.3c0,0.2,0.2,0.4,0.2,0.4s0.2,0,0.3,0c0-0.1,0-0.3,0.1-0.3
								c0.1-0.1,0.3-0.1,0.3-0.2c0-0.1,0-0.2-0.2-0.3c-0.1-0.1-0.2-0.1-0.3-0.3c0-0.1-0.1-0.3,0-0.3c0.1,0,0.2,0.3,0.3,0.1
								c0-0.2,0.2-0.3,0.3-0.3c0.1,0,0.3,0.1,0.3,0.2c0,0,0.1,0.5,0.1,0.5s0,0,0.1,0.3s0.2,0.3,0.2,0.3c0,0.1-0.1,0.1,0.1,0.1
								c0.2,0,0.5,0,0.5,0.1c0,0,0.2,0.1,0.2,0.1s0.2,0.1,0.2,0c0-0.1,0.1-0.3,0.1-0.2s0.4,0,0.4,0.1c0,0.1,0.2,0.1,0.2,0.1
								c-0.3-0.7-0.6-1.3-0.9-2l-0.5-0.1l-0.3-0.1l-0.2-0.2h0.1l0-0.2l0-0.1l0.1-0.1l0.1-0.3c-0.9-1.4-1.9-2.8-3-4
								c0,0-0.2,0.1-0.2,0.1s-0.2,0.1-0.2,0c0,0-0.1-0.2-0.1-0.2s0-0.1,0,0c0,0-0.1,0-0.1,0l-0.2,0.1c0,0-0.1,0.1-0.2,0.1
								c0,0-0.2,0-0.2,0c0,0-0.2,0.2-0.3,0.1c0,0-0.1,0-0.1,0c0-0.1,0-0.2-0.1-0.2c0,0-0.2,0-0.2,0.1c0,0,0,0-0.1,0.1
								s-0.3,0.1-0.3,0.1v0l0.3-0.3l0.1-0.3c0,0,0.3,0,0.3,0.1c0,0,0.1-0.1,0.1,0c0.1,0,0.2,0,0.2,0.1c0,0,0,0.1,0.1,0.1
								c0,0,0-0.2,0-0.2s-0.1,0-0.1-0.1s0-0.1,0-0.1c0,0,0.2-0.1,0.2-0.1c0,0,0.2,0,0.2,0s0,0,0-0.1s0.1-0.3,0.1-0.3s-0.1,0-0.1-0.1
								v0c-0.8-0.8-1.6-1.4-2.5-2.1c-0.1,0-0.3,0.1-0.3,0.1l-0.4,0.4c0,0-0.1,0.2-0.1,0.2c0,0,0,0.6,0,0.6s0.2,0,0.2,0.1
								c0,0,0,0.4,0,0.4l0.3,0.2c0,0,0.4,0.1,0.4,0.1c0,0,0.2-0.1,0.2-0.1c0,0,0.2-0.2,0.3-0.2c0,0,0.2-0.2,0.3-0.1
								c0,0,0,0.3,0.1,0.4c0,0,0.2,0.1,0.2,0.3c0,0.1,0.1,0.3,0.1,0.3c0,0-0.1,0.1-0.1,0.1s-0.3,0-0.3,0.1c0,0-0.1,0-0.1,0
								s0.1-0.1,0.1-0.2c0,0,0-0.2-0.1-0.2s-0.1-0.1,0-0.1c0,0,0-0.2,0-0.2s0,0-0.1,0c0,0-0.4,0.1-0.4,0.1s-0.2,0.2-0.2,0.2
								c0,0-0.1,0.2,0,0.4s0.2,0.4,0.2,0.4s0.1,0.1,0.1,0.1c0,0-0.1,0.2-0.1,0.2h-0.2c0,0-0.4,0-0.5,0.1c0,0-0.4,0.1-0.4,0.2
								c0,0-0.1,0.5-0.1,0.5s-0.4,0.3-0.5,0.3s-0.3,0.1-0.3,0.1s-0.1,0.4-0.1,0.3l-0.5,0.2c0,0-0.8-0.2-0.8-0.3s-0.1-0.1-0.1-0.1
								c0,0,0.1,0.3,0.1,0.4c0,0,0,0.2,0,0.1c0,0-0.2-0.1-0.3-0.1c0,0-0.4,0-0.4,0h-0.1l-0.2,0.1v0.1l0.1,0.1l0.3,0.1l0.3,0.2
								l0.1,0.3l0.1,0.3l-0.1,0.6c0,0-0.2,0.2-0.2,0.2l-0.7,0c0,0-0.3,0-0.3-0.1c0,0-0.5,0-0.5,0c0,0-0.1,0-0.1,0l0-0.1h-0.2
								l-0.2,0.2h-0.2v0.2l0.1,0.4c0,0,0,0.5,0,0.5s-0.2,0.4-0.2,0.5v0.3l0.1,0.2v0.2c0,0-0.1,0.2,0,0.2c0,0,0.3,0,0.4,0
								c0,0,0.2-0.1,0.2,0c0,0,0.1,0,0.2,0.1c0,0.1,0.1,0.3,0.1,0.3c0,0,0.1,0,0.1,0l0,0.1l0,0l-0.2,0.6l-0.5,0.4l-0.3,0.2l-0.1,0.2
								l-0.1,0.1l0,0.3c0,0,0,0.4,0,0.4l-0.7,0.7l-0.4,0.1l-0.2,0.4c0,0-0.3,0.3-0.3,0.3c0,0-0.2,0.2-0.2,0.2s0.1,0.3,0.1,0.2
								c0,0,0.2,0.3,0.2,0.4c0.3,1,0.5,1.4,0.3,2.3c-0.1,0.8-0.8,1.9-1.3,2.4l0,0.1c0,0,0.1,0.1,0.2,0.1s0.3,0.2,0.4,0.2
								s0.4,0.5,0.4,0.5l0,0.1l0.2,0.6c0,0,0.9,0.7,0.9,0.7s0.9,0.7,0.9,0.7l0.7-0.3c0,0,0.6,0,0.6,0l0.4,0l0.3,0.1l1-0.5l0.2-0.1
								l0.8,0l0.4,0.1c0,0,0.2,0.4,0.2,0.4c0,0,0.1,0.3,0.2,0.3c0,0,0.9-0.1,0.9,0c0,0,0.4,0.4,0.4,0.4v0.3l0,0.6l-0.1,0.3l-0.1,0.3
								l0,0.2c0,0,0.9,1.3,0.9,1.3c0,0,0.2,0.5,0.2,0.5l0.3,0.7l0.1,0.4l-0.1,0.2l0.2,0.7l-0.1,0.7l-0.4,0.9l-0.2,0.6l0,0.8l0.5,1
								l0.5,1.1l0,1.2l0.2,0.4c4.4-4.2,7.2-10.1,7.2-16.7C2816.3,2863.9,2816.2,2862.8,2816.1,2861.7z"/>
						</g>
					</g>
					<g id="Vector_15_">
						<g transform="translate(2705.94 2848.04)">
							<path id="path8_fill_1_" class="st0" d="M2778.5,2863.8c0.1,0,0.2,0,0.2,0s0.2,0,0.2,0s0,0.1,0,0.2s0.3,0,0.3,0
								s0.1-0.1,0.1-0.1l0.4-0.1h0.5c0,0,0.1-0.1,0-0.2c-0.1-0.1-0.3-0.2-0.4-0.3c0-0.1-0.3,0-0.4,0c-0.1,0-0.5-0.1-0.6-0.1
								c-0.1,0,0,0.1,0,0.1v0.4h-0.5v0c0,0-0.1,0-0.1,0.1C2778.3,2863.8,2778.4,2863.8,2778.5,2863.8z"/>
						</g>
					</g>
					<g id="Vector_14_">
						<g transform="translate(2702.69 2846.79)">
							<path id="path9_fill_1_" class="st0" d="M2778.6,2862.8c0,0-0.2-0.1-0.3-0.1s-0.5-0.4-0.6-0.5c0-0.1-1-0.3-1-0.3
								s-1.1,0-1.1-0.1s-0.5,0.4-0.5,0.4v0c0,0,0,0.2,0,0.2s0.3-0.2,0.4-0.3c0-0.1,0.3-0.1,0.3-0.2s0.1,0.1,0.1,0.1s0.3,0.1,0.3,0.1
								l0.5,0.2l0.2,0.2c0,0,0.1,0.5,0.1,0.5c0,0,0.4,0,0.4,0l0.8-0.1C2778.3,2863,2778.6,2862.9,2778.6,2862.8z"/>
						</g>
					</g>
				</g>
			</g>
		</g>
	</g>
</g>
<g id="Canvas_3_" transform="translate(-2710 -2840)">
	<g id="Laag_22_1_">
		<g id="Group_7_">
			<g id="Group_8_">
				<g id="Vector_13_">
					<g transform="translate(2710 2840)">
						<path id="path0_fill_5_" class="st0" d="M2796.7,2881.7l7.7,6.8c0.2,0.2,0.6,0.4,1,0.4c0.3,0,0.8-0.2,1-0.4
							c2.8-2.7,7.2-6.7,7.7-7.1c0.1,0,0.1-0.1,0.2-0.2c1.1-1.1,2.2-2.5,2.2-4.8c0-3.6-2.9-6.5-6.5-6.5c-1.7,0-3.3,0.7-4.5,1.8
							c-1.2-1.1-2.8-1.8-4.5-1.8c-3.6,0-6.5,2.9-6.5,6.5C2794.3,2878.7,2795.2,2880.6,2796.7,2881.7z"/>
					</g>
				</g>
			</g>
			<g id="Vector_12_">
				<g transform="translate(2711.42 2841.38)">
					<path id="path1_fill_4_" class="st0" d="M2814.9,2876.5c0-2.8-2.2-5.2-5.1-5.2c-2,0-3.7,1.1-4.5,2.8c-0.8-1.7-2.6-2.8-4.5-2.8
						c-2.8,0-5.1,2.3-5.1,5.2c0,1.8,0.7,3.4,2,4.3l7.7,6.9c0,0,8-7.4,7.7-7.1C2814.2,2879.4,2814.9,2878.4,2814.9,2876.5z"/>
				</g>
			</g>
		</g>
	</g>
</g>
<g id="Typo_1_">
	<g id="CO_1_">
		<g id="CO_2_">
			<g transform="translate(2626 2813)">
				<path id="path0_fill_2_" class="st1" d="M61,66.1c-3.3,2.9-7,5-11.2,6.6C45.7,74.2,41.4,75,37,75c-3.4,0-6.7-0.5-9.8-1.4
					s-6.1-2.1-8.8-3.7c-2.7-1.6-5.2-3.5-7.5-5.8c-2.3-2.3-4.2-4.8-5.8-7.5c-1.6-2.7-2.9-5.7-3.7-8.8C0.4,44.7,0,41.4,0,38
					c0-3.4,0.4-6.7,1.3-9.8c0.9-3.2,2.1-6.1,3.7-8.8c1.6-2.7,3.5-5.2,5.8-7.5c2.3-2.3,4.8-4.2,7.5-5.8s5.7-2.9,8.8-3.7
					C30.4,1.4,33.6,1,37,1c4.4,0,8.7,0.8,12.8,2.3C54,4.8,57.7,7,61,9.9l-7.6,12.5c-2.1-2.3-4.6-4-7.4-5.2c-2.9-1.2-5.9-1.8-9-1.8
					c-3.2,0-6.1,0.6-8.9,1.8c-2.8,1.2-5.2,2.8-7.2,4.9s-3.7,4.4-4.9,7.2c-1.2,2.8-1.8,5.7-1.8,8.8c0,3.1,0.6,6.1,1.8,8.8
					c1.2,2.7,2.8,5.1,4.9,7.2c2.1,2.1,4.5,3.7,7.2,4.9c2.8,1.2,5.7,1.8,8.9,1.8c3.1,0,6.1-0.6,9-1.8c2.9-1.2,5.3-2.9,7.4-5.2
					L61,66.1z M132.1,38c0,3.4-0.4,6.6-1.3,9.8c-0.9,3.1-2.1,6.1-3.7,8.8c-1.6,2.7-3.5,5.2-5.8,7.5c-2.3,2.3-4.7,4.2-7.5,5.8
					c-2.7,1.6-5.7,2.9-8.8,3.7c-3.2,0.9-6.4,1.4-9.8,1.4c-3.4,0-6.6-0.5-9.8-1.4c-3.1-0.9-6.1-2.1-8.8-3.7c-2.7-1.6-5.2-3.5-7.5-5.8
					c-2.3-2.3-4.2-4.8-5.8-7.5c-1.6-2.7-2.9-5.7-3.7-8.8c-0.9-3.1-1.3-6.4-1.3-9.8c0-3.4,0.4-6.7,1.3-9.8c0.9-3.2,2.1-6.1,3.7-8.8
					c1.6-2.7,3.5-5.2,5.8-7.5c2.3-2.3,4.8-4.2,7.5-5.8c2.7-1.6,5.7-2.8,8.8-3.7C88.6,1.5,91.8,1,95.2,1c3.4,0,6.7,0.5,9.8,1.4
					c3.2,0.9,6.1,2.1,8.8,3.7s5.2,3.5,7.5,5.8c2.3,2.3,4.2,4.7,5.8,7.5c1.6,2.7,2.8,5.7,3.7,8.8C131.7,31.3,132.1,34.6,132.1,38z
					 M117.9,38c0-3.1-0.6-6.1-1.8-8.8c-1.2-2.8-2.8-5.2-4.9-7.2s-4.4-3.7-7.2-4.9c-2.8-1.2-5.7-1.8-8.8-1.8c-3.2,0-6.1,0.6-8.9,1.8
					c-2.8,1.2-5.2,2.8-7.2,4.9s-3.7,4.4-4.9,7.2c-1.2,2.8-1.8,5.7-1.8,8.8c0,3.1,0.6,6.1,1.8,8.8c1.2,2.7,2.8,5.1,4.9,7.2
					c2.1,2.1,4.5,3.7,7.2,4.9c2.8,1.2,5.7,1.8,8.9,1.8c3.1,0,6.1-0.6,8.8-1.8c2.8-1.2,5.2-2.8,7.2-4.9c2-2.1,3.7-4.5,4.9-7.2
					S117.9,41.1,117.9,38z"/>
			</g>
		</g>
		<defs>
			<filter id="Adobe_OpacityMaskFilter" filterUnits="userSpaceOnUse" x="96" y="49" width="36" height="11.7">
				<feColorMatrix  type="matrix" values="1 0 0 0 0  0 1 0 0 0  0 0 1 0 0  0 0 0 1 0"/>
			</filter>
		</defs>
		<mask maskUnits="userSpaceOnUse" x="96" y="49" width="36" height="11.7" id="mask0_outline_2_">
			<g id="CO_4_" class="st5">
				<g transform="translate(2626 2813)">
					<path id="path0_fill_4_" class="st0" d="M61,66.1c-3.3,2.9-7,5-11.2,6.6C45.7,74.2,41.4,75,37,75c-3.4,0-6.7-0.5-9.8-1.4
						s-6.1-2.1-8.8-3.7c-2.7-1.6-5.2-3.5-7.5-5.8c-2.3-2.3-4.2-4.8-5.8-7.5c-1.6-2.7-2.9-5.7-3.7-8.8C0.4,44.7,0,41.4,0,38
						c0-3.4,0.4-6.7,1.3-9.8c0.9-3.2,2.1-6.1,3.7-8.8c1.6-2.7,3.5-5.2,5.8-7.5c2.3-2.3,4.8-4.2,7.5-5.8s5.7-2.9,8.8-3.7
						C30.4,1.4,33.6,1,37,1c4.4,0,8.7,0.8,12.8,2.3C54,4.8,57.7,7,61,9.9l-7.6,12.5c-2.1-2.3-4.6-4-7.4-5.2c-2.9-1.2-5.9-1.8-9-1.8
						c-3.2,0-6.1,0.6-8.9,1.8c-2.8,1.2-5.2,2.8-7.2,4.9s-3.7,4.4-4.9,7.2c-1.2,2.8-1.8,5.7-1.8,8.8c0,3.1,0.6,6.1,1.8,8.8
						c1.2,2.7,2.8,5.1,4.9,7.2c2.1,2.1,4.5,3.7,7.2,4.9c2.8,1.2,5.7,1.8,8.9,1.8c3.1,0,6.1-0.6,9-1.8c2.9-1.2,5.3-2.9,7.4-5.2
						L61,66.1z M132.1,38c0,3.4-0.4,6.6-1.3,9.8c-0.9,3.1-2.1,6.1-3.7,8.8c-1.6,2.7-3.5,5.2-5.8,7.5c-2.3,2.3-4.7,4.2-7.5,5.8
						c-2.7,1.6-5.7,2.9-8.8,3.7c-3.2,0.9-6.4,1.4-9.8,1.4c-3.4,0-6.6-0.5-9.8-1.4c-3.1-0.9-6.1-2.1-8.8-3.7
						c-2.7-1.6-5.2-3.5-7.5-5.8c-2.3-2.3-4.2-4.8-5.8-7.5c-1.6-2.7-2.9-5.7-3.7-8.8c-0.9-3.1-1.3-6.4-1.3-9.8c0-3.4,0.4-6.7,1.3-9.8
						c0.9-3.2,2.1-6.1,3.7-8.8c1.6-2.7,3.5-5.2,5.8-7.5c2.3-2.3,4.8-4.2,7.5-5.8c2.7-1.6,5.7-2.8,8.8-3.7C88.6,1.5,91.8,1,95.2,1
						c3.4,0,6.7,0.5,9.8,1.4c3.2,0.9,6.1,2.1,8.8,3.7s5.2,3.5,7.5,5.8c2.3,2.3,4.2,4.7,5.8,7.5c1.6,2.7,2.8,5.7,3.7,8.8
						C131.7,31.3,132.1,34.6,132.1,38z M117.9,38c0-3.1-0.6-6.1-1.8-8.8c-1.2-2.8-2.8-5.2-4.9-7.2s-4.4-3.7-7.2-4.9
						c-2.8-1.2-5.7-1.8-8.8-1.8c-3.2,0-6.1,0.6-8.9,1.8c-2.8,1.2-5.2,2.8-7.2,4.9s-3.7,4.4-4.9,7.2c-1.2,2.8-1.8,5.7-1.8,8.8
						c0,3.1,0.6,6.1,1.8,8.8c1.2,2.7,2.8,5.1,4.9,7.2c2.1,2.1,4.5,3.7,7.2,4.9c2.8,1.2,5.7,1.8,8.9,1.8c3.1,0,6.1-0.6,8.8-1.8
						c2.8-1.2,5.2-2.8,7.2-4.9c2-2.1,3.7-4.5,4.9-7.2S117.9,41.1,117.9,38z"/>
				</g>
			</g>
		</mask>
		<g id="Shadow_1_" class="st6">
			<g transform="translate(2722 2861)">
				
					<linearGradient id="path1_fill_7_" gradientUnits="userSpaceOnUse" x1="-818.4734" y1="619.5751" x2="-817.4734" y2="619.5751" gradientTransform="matrix(-16.6346 14.438 44.5389 5.3924 -41095.4453 8530.3477)">
					<stop  offset="0" style="stop-color:#000000;stop-opacity:1.000000e-02"/>
					<stop  offset="1" style="stop-color:#000000"/>
				</linearGradient>
				<path id="path1_fill_3_" class="st7" d="M96,49h36v11.7H96V49z"/>
			</g>
		</g>
	</g>
	<g id="_x32__1_">
		<g id="Mask_2_">
			<g transform="translate(2722 2872.65)">
				<path id="path2_fill_2_" class="st1" d="M146,89v14h-33.3V88c0-2.5,0.6-4.6,2-6.6c2.4-3.5,12.4-6.6,11.4-6.4L96,75V60.6h33.4
					c9.3,0,16.6,5.8,16.6,13.7c0,2.6-0.8,5-2.3,7.1c-2.4,3.5-6.5,6.8-11.3,7.6H146z"/>
			</g>
		</g>
		<defs>
			<filter id="Adobe_OpacityMaskFilter_1_" filterUnits="userSpaceOnUse" x="110" y="75" width="28" height="14">
				<feColorMatrix  type="matrix" values="1 0 0 0 0  0 1 0 0 0  0 0 1 0 0  0 0 0 1 0"/>
			</filter>
		</defs>
		<mask maskUnits="userSpaceOnUse" x="110" y="75" width="28" height="14" id="mask1_outline_2_">
			<g id="Mask_1_" class="st8">
				<g transform="translate(2722 2872.65)">
					<path id="path2_fill_3_" class="st0" d="M146,89v14h-33.3V88c0-2.5,0.6-4.6,2-6.6c2.4-3.5,12.4-6.6,11.4-6.4L96,75V60.6h33.4
						c9.3,0,16.6,5.8,16.6,13.7c0,2.6-0.8,5-2.3,7.1c-2.4,3.5-6.5,6.8-11.3,7.6H146z"/>
				</g>
			</g>
		</mask>
		<g id="Rectangle_1_" class="st9">
			<g transform="translate(2736 2887)">
				
					<linearGradient id="path3_fill_5_" gradientUnits="userSpaceOnUse" x1="-825.1906" y1="622.4677" x2="-824.1906" y2="622.4677" gradientTransform="matrix(-12.938 17.3207 34.6413 6.469 -32114.8438 10347.375)">
					<stop  offset="0" style="stop-color:#000000;stop-opacity:1.000000e-02"/>
					<stop  offset="1" style="stop-color:#000000"/>
				</linearGradient>
				<path id="path3_fill_2_" class="st10" d="M110,75h28v14h-28V75z"/>
			</g>
		</g>
	</g>
</g>
<g id="OK_1_">
	<g id="Combined_Shape_1_">
		<g transform="translate(2772 2827)">
			<path id="path4_fill_2_" class="st0" d="M169,61c-12.7,0-23-10.3-23-23s10.3-23,23-23s23,10.3,23,23S181.7,61,169,61z M169,49
				c6.1,0,11-4.9,11-11s-4.9-11-11-11s-11,4.9-11,11S162.9,49,169,49z M195,61h10.3v-9.2l7.1-9.4L222.5,61H234l-15.6-26.6L233,15
				h-11.5l-16.2,22V15H195V61z"/>
		</g>
	</g>
	<g id="Group_6_">
		<g id="K_1_" class="st4">
			<g transform="translate(2838.32 2846.41)">
				<path id="path5_fill_2_" class="st0" d="M218.4,34.4L234,61h-11.5l-10.2-18.6L218.4,34.4z"/>
			</g>
		</g>
	</g>
</g>
</svg>
