<svg width="98" height="38" viewBox="0 0 98 38" version="1.1" xmlns="http://www.w3.org/2000/svg" xmlns:xlink="http://www.w3.org/1999/xlink">
<title>Typo</title>
<desc>Created using Figma</desc>
<g id="Canvas" transform="matrix(1.5 0 0 1.5 -325.5 -4813.5)">
<g id="Typo">
<g id="OK">
<g id="Combined Shape">
<use xlink:href="#path0_fill" transform="translate(249.674 3209)" fill="url(#paint0_linear)"/>
</g>
<g id="Mask Copy">
<use xlink:href="#path1_fill" transform="translate(273.254 3216.11)" fill="url(#paint1_linear)" fill-opacity="0.5"/>
</g>
</g>
<g id="CO">
<g id="CO">
<use xlink:href="#path2_fill" transform="translate(217 3209)" fill="#606468"/>
</g>
<mask id="mask0_outline" mask-type="alpha">
<g id="CO">
<use xlink:href="#path2_fill" transform="translate(217 3209)" fill="#FFFFFF"/>
</g>
</mask>
<g id="Shadow" mask="url(#mask0_outline)">
<use xlink:href="#path3_fill" transform="translate(238.935 3219.97)" fill="url(#paint4_linear)"/>
</g>
</g>
<g id="2">
<g id="Mask">
<use xlink:href="#path4_fill" transform="translate(238.935 3222.63)" fill="#606468"/>
</g>
<mask id="mask1_outline" mask-type="alpha">
<g id="Mask">
<use xlink:href="#path4_fill" transform="translate(238.935 3222.63)" fill="#FFFFFF"/>
</g>
</mask>
<g id="Rectangle" mask="url(#mask1_outline)">
<use xlink:href="#path5_fill" transform="translate(242.496 3226.28)" fill="url(#paint7_linear)"/>
</g>
</g>
</g>
</g>
<defs>
<linearGradient id="paint0_linear" x1="0" y1="0" x2="1" y2="0" gradientUnits="userSpaceOnUse" gradientTransform="matrix(26.5514 14.6716 -26.9889 14.4338 4.55194 2.23671)">
<stop offset="0" stop-color="#20F1AC"/>
<stop offset="1" stop-color="#0DDB6E"/>
</linearGradient>
<linearGradient id="paint1_linear" x1="0" y1="0" x2="1" y2="0" gradientUnits="userSpaceOnUse" gradientTransform="matrix(-3.37982 -4.45086 3.5223 -4.27082 2.36969 3.20086)">
<stop offset="0" stop-color="#000000" stop-opacity="0.01"/>
<stop offset="1"/>
</linearGradient>
<linearGradient id="paint4_linear" x1="0" y1="0" x2="1" y2="0" gradientUnits="userSpaceOnUse" gradientTransform="matrix(-3.80083 3.29893 -10.1767 -1.2321 5.46456 1.33324)">
<stop offset="0" stop-color="#000000" stop-opacity="0.01"/>
<stop offset="1"/>
</linearGradient>
<linearGradient id="paint7_linear" x1="0" y1="0" x2="1" y2="0" gradientUnits="userSpaceOnUse" gradientTransform="matrix(-3.29051 4.40515 -8.81029 -1.64526 4.73086 1.7803)">
<stop offset="0" stop-color="#000000" stop-opacity="0.01"/>
<stop offset="1"/>
</linearGradient>
<path id="path0_fill" fill-rule="evenodd" d="M 16.8763 8.43237C 16.8763 9.2063 16.7758 9.95166 16.5748 10.6687C 16.3737 11.3855 16.0911 12.0569 15.727 12.6829C 15.3628 13.3088 14.9228 13.8796 14.4069 14.3955C 13.891 14.9114 13.322 15.3533 12.6999 15.7212C 12.0778 16.0891 11.4064 16.3738 10.6857 16.5747C 9.96497 16.7759 9.21768 16.9082 8.44385 16.9082C 7.67001 16.9082 6.92465 16.7759 6.20772 16.5747C 5.49078 16.3738 4.81937 16.0891 4.19348 15.7212C 3.56758 15.3533 2.9967 14.9114 2.4808 14.3955C 1.96492 13.8796 1.52301 13.3088 1.15506 12.6829C 0.787109 12.0569 0.502609 11.3855 0.301559 10.6687C 0.100525 9.95166 0 9.2063 0 8.43237C 0 7.65869 0.100525 6.91138 0.301559 6.19067C 0.502609 5.46997 0.787109 4.79858 1.15506 4.17651C 1.52301 3.5542 1.96492 2.98535 2.4808 2.46948C 2.9967 1.95361 3.56758 1.51343 4.19348 1.14941C 4.81937 0.785156 5.49078 0.502686 6.20772 0.301514C 6.92465 0.100586 7.67001 0 8.44385 0C 9.21768 0 9.96497 0.100586 10.6857 0.301514C 11.4064 0.502686 12.0778 0.785156 12.6999 1.14941C 13.322 1.51343 13.891 1.95361 14.4069 2.46948C 14.9228 2.98535 15.3628 3.5542 15.727 4.17651C 16.0911 4.79858 16.3737 5.46997 16.5748 6.19067C 16.7758 6.91138 16.8763 7.65869 16.8763 8.43237ZM 13.6331 8.43237C 13.6331 7.71924 13.4965 7.0459 13.2234 6.41235C 12.9503 5.77905 12.5804 5.229 12.1139 4.76245C 11.6473 4.2959 11.0973 3.92603 10.4638 3.65283C 9.83029 3.37964 9.15698 3.24316 8.44385 3.24316C 7.72311 3.24316 7.04791 3.37964 6.41824 3.65283C 5.78854 3.92603 5.23853 4.2959 4.76816 4.76245C 4.29779 5.229 3.92606 5.77905 3.65292 6.41235C 3.37981 7.0459 3.24326 7.71924 3.24326 8.43237C 3.24326 9.14551 3.37981 9.81494 3.65292 10.4409C 3.92606 11.0669 4.29779 11.615 4.76816 12.0852C 5.23853 12.5557 5.78854 12.9275 6.41824 13.2004C 7.04791 13.4736 7.72311 13.6101 8.44385 13.6101C 9.15698 13.6101 9.83029 13.4736 10.4638 13.2004C 11.0973 12.9275 11.6473 12.5557 12.1139 12.0852C 12.5804 11.615 12.9503 11.0669 13.2234 10.4409C 13.4965 9.81494 13.6331 9.14551 13.6331 8.43237ZM 17.8222 16.9082L 21.021 16.9082L 21.021 13.2812L 23.5804 9.94678L 27.622 16.9082L 31.0746 16.9082L 29.7312 14.1145L 27.3545 9.96631L 25.7198 7.11328L 31.1034 0L 27.3935 0L 21.021 8.38794L 21.021 0L 17.8222 0L 17.8222 16.9082Z"/>
<path id="path1_fill" fill-rule="evenodd" d="M 2.13941 0L 7.75147 9.79494L 4.04163 9.79494L 0 2.83359L 2.13941 0Z"/>
<path id="path2_fill" fill-rule="evenodd" d="M 13.9379 14.8735C 13.1781 15.5259 12.3272 16.0266 11.3851 16.3756C 10.443 16.7246 9.46667 16.9082 8.45617 16.9082C 7.68121 16.9082 6.93475 16.7986 6.21677 16.5975C 5.49879 16.3965 4.8264 16.112 4.1996 15.744C 3.57279 15.3761 3.00107 14.9342 2.48443 14.4183C 1.96779 13.9024 1.52523 13.3315 1.15674 12.7056C 0.788253 12.0797 0.503345 11.4083 0.302006 10.6914C 0.100668 9.97444 0 9.22907 0 8.45523C 0 7.6814 0.100668 6.93413 0.302006 6.2134C 0.503345 5.49267 0.788253 4.81937 1.15674 4.19348C 1.52523 3.56758 1.96779 2.9967 2.48443 2.48081C 3.00107 1.96492 3.57279 1.52301 4.1996 1.15506C 4.8264 0.787105 5.49879 0.502611 6.21677 0.301566C 6.93475 0.100521 7.68121 0 8.45617 0C 9.46667 0 10.443 0.172593 11.3851 0.517784C 12.3272 0.862974 13.1781 1.36558 13.9379 2.02561L 12.2056 4.87058C 11.727 4.35469 11.1609 3.9583 10.5075 3.68138C 9.85414 3.40447 9.17036 3.26602 8.45617 3.26602C 7.7344 3.26602 7.05821 3.40258 6.4276 3.67569C 5.797 3.94881 5.24617 4.31865 4.77512 4.78523C 4.30406 5.25181 3.93178 5.80183 3.65826 6.43531C 3.38475 7.06879 3.24799 7.74209 3.24799 8.45523C 3.24799 9.16838 3.38475 9.83788 3.65826 10.4638C 3.93178 11.0897 4.30406 11.6378 4.77512 12.1082C 5.24617 12.5785 5.797 12.9503 6.4276 13.2234C 7.05821 13.4965 7.7344 13.6331 8.45617 13.6331C 9.17036 13.6331 9.85414 13.4946 10.5075 13.2177C 11.1609 12.9408 11.727 12.5444 12.2056 12.0285L 13.9379 14.8735ZM 30.1863 8.45523C 30.1863 9.22907 30.0858 9.97444 29.8847 10.6914C 29.6837 11.4083 29.4011 12.0797 29.0369 12.7056C 28.6728 13.3315 28.2328 13.9024 27.7169 14.4183C 27.201 14.9342 26.632 15.3761 26.0099 15.744C 25.3878 16.112 24.7164 16.3965 23.9957 16.5975C 23.2749 16.7986 22.5277 16.9082 21.7538 16.9082C 20.98 16.9082 20.2346 16.7986 19.5177 16.5975C 18.8007 16.3965 18.1293 16.112 17.5034 15.744C 16.8776 15.3761 16.3067 14.9342 15.7908 14.4183C 15.2749 13.9024 14.833 13.3315 14.465 12.7056C 14.0971 12.0797 13.8126 11.4083 13.6115 10.6914C 13.4105 9.97444 13.31 9.22907 13.31 8.45523C 13.31 7.6814 13.4105 6.93413 13.6115 6.2134C 13.8126 5.49267 14.0971 4.82127 14.465 4.19917C 14.833 3.57707 15.2749 3.00808 15.7908 2.49219C 16.3067 1.9763 16.8776 1.53628 17.5034 1.17213C 18.1293 0.807968 18.8007 0.525371 19.5177 0.324326C 20.2346 0.123281 20.98 0 21.7538 0C 22.5277 0 23.2749 0.123281 23.9957 0.324326C 24.7164 0.525371 25.3878 0.807968 26.0099 1.17213C 26.632 1.53628 27.201 1.9763 27.7169 2.49219C 28.2328 3.00808 28.6728 3.57707 29.0369 4.19917C 29.4011 4.82127 29.6837 5.49267 29.8847 6.2134C 30.0858 6.93413 30.1863 7.6814 30.1863 8.45523ZM 26.943 8.45508C 26.943 7.74194 26.8065 7.06864 26.5334 6.43516C 26.2602 5.80168 25.8904 5.25166 25.4238 4.78508C 24.9572 4.3185 24.4072 3.94866 23.7737 3.67554C 23.1403 3.40243 22.467 3.26587 21.7538 3.26587C 21.0331 3.26587 20.3579 3.40243 19.7282 3.67554C 19.0985 3.94866 18.5485 4.3185 18.0781 4.78508C 17.6078 5.25166 17.236 5.80168 16.9629 6.43516C 16.6898 7.06864 16.5532 7.74194 16.5532 8.45508C 16.5532 9.16823 16.6898 9.83773 16.9629 10.4636C 17.236 11.0895 17.6078 11.6376 18.0781 12.108C 18.5485 12.5784 19.0985 12.9501 19.7282 13.2232C 20.3579 13.4964 21.0331 13.6329 21.7538 13.6329C 22.467 13.6329 23.1403 13.4964 23.7737 13.2232C 24.4072 12.9501 24.9572 12.5784 25.4238 12.108C 25.8904 11.6376 26.2602 11.0895 26.5334 10.4636C 26.8065 9.83773 26.943 9.16823 26.943 8.45508Z"/>
<path id="path3_fill" fill-rule="evenodd" d="M 0 0L 8.22563 0L 8.22563 2.66647L 0 2.66647L 0 0Z"/>
<path id="path4_fill" fill-rule="evenodd" d="M 10.6818 7.21022L 10.6818 10.7708L 3.5606 10.7708L 3.5606 6.95589C 3.57075 6.32619 3.69512 5.78927 3.99194 5.2771C 4.50693 4.37971 6.64368 3.60301 6.43058 3.6438L 0 3.64961L 0 0L 7.13901 0C 9.12035 0 10.6818 1.48305 10.6818 3.47413C 10.6818 4.12932 10.5068 4.74683 10.1998 5.2771C 9.69241 6.16174 8.81971 7.00882 7.78972 7.21022L 10.6818 7.21022Z"/>
<path id="path5_fill" fill-rule="evenodd" d="M 0 0L 7.12121 0L 7.12121 3.56061L 0 3.56061L 0 0Z"/>
</defs>
</svg>
