<svg width="230" height="89" viewBox="0 0 230 89" fill="none" xmlns="http://www.w3.org/2000/svg">
<path fill-rule="evenodd" clip-rule="evenodd" d="M55.7331 56.7984C52.695 59.29 49.2924 61.2021 45.5253 62.5347C41.7581 63.8675 37.8542 64.5687 33.8135 64.5687C30.7147 64.5687 27.7299 64.1499 24.8589 63.3821C21.9879 62.6144 19.2993 61.528 16.7928 60.1229C14.2864 58.7178 12.0003 57.0302 9.93447 55.0601C7.86854 53.0901 6.0989 50.91 4.62544 48.5198C3.15197 46.1297 2.01271 43.5657 1.20763 40.8279C0.402538 38.0901 0 35.2437 0 32.2886C0 29.3335 0.402538 26.4799 1.20763 23.7276C2.01271 20.9752 3.15197 18.4041 4.62544 16.0139C6.0989 13.6238 7.86854 11.4437 9.93447 9.47363C12.0003 7.50358 14.2864 5.81602 16.7928 4.4109C19.2993 3.00578 21.9879 1.91936 24.8589 1.15161C27.7299 0.383867 30.7147 0 33.8135 0C37.8542 0 41.7581 0.659093 45.5253 1.9773C49.2924 3.2955 52.695 5.21484 55.7331 7.73536L48.8063 18.5996C46.8924 16.6296 44.6291 15.1158 42.0163 14.0584C39.4036 13.0009 36.6694 12.4721 33.8135 12.4721C30.9274 12.4721 28.2235 12.9937 25.7019 14.0366C23.1803 15.0796 20.9778 16.492 19.0942 18.2737C17.2106 20.0555 15.7219 22.1559 14.6282 24.575C13.5346 26.9941 12.9876 29.5653 12.9876 32.2886C12.9876 35.012 13.5346 37.5686 14.6282 39.9588C15.7219 42.349 17.2106 44.4421 19.0942 46.2384C20.9778 48.0346 23.1803 49.4541 25.7019 50.4971C28.2235 51.5402 30.9274 52.0616 33.8135 52.0616C36.6694 52.0616 39.4036 51.5329 42.0163 50.4754C44.6291 49.4179 46.8924 47.9042 48.8063 45.9342L55.7331 56.7984ZM120.705 32.2886C120.705 35.2437 120.303 38.0901 119.499 40.8279C118.696 43.5657 117.566 46.1297 116.109 48.5198C114.653 50.91 112.894 53.0901 110.831 55.0601C108.768 57.0302 106.493 58.7178 104.005 60.1229C101.517 61.528 98.833 62.6144 95.9514 63.3821C93.0688 64.1499 90.0809 64.5687 86.9866 64.5687C83.8923 64.5687 80.9118 64.1499 78.045 63.3821C75.1782 62.6144 72.4935 61.528 69.9907 60.1229C67.4879 58.7178 65.2052 57.0302 63.1423 55.0601C61.0794 53.0901 59.3123 50.91 57.841 48.5198C56.3697 46.1297 55.2321 43.5657 54.4282 40.8279C53.6243 38.0901 53.2224 35.2437 53.2224 32.2886C53.2224 29.3335 53.6243 26.4799 54.4282 23.7276C55.2321 20.9752 56.3697 18.4113 57.841 16.0356C59.3123 13.66 61.0794 11.4872 63.1423 9.51708C65.2052 7.54704 67.4879 5.86671 69.9907 4.47608C72.4935 3.08544 75.1782 2.00627 78.045 1.23852C80.9118 0.470781 83.8923 0 86.9866 0C90.0809 0 93.0688 0.470781 95.9514 1.23852C98.833 2.00627 101.517 3.08544 104.005 4.47608C106.493 5.86671 108.768 7.54704 110.831 9.51708C112.894 11.4872 114.653 13.66 116.109 16.0356C117.566 18.4113 118.696 20.9752 119.499 23.7276C120.303 26.4799 120.705 29.3335 120.705 32.2886ZM107.737 32.2886C107.737 29.5653 107.19 26.9941 106.098 24.575C105.007 22.1559 103.527 20.0555 101.662 18.2737C99.796 16.492 97.5969 15.0796 95.0633 14.0366C92.5306 12.9937 89.8382 12.4721 86.9866 12.4721C84.1046 12.4721 81.4048 12.9937 78.8868 14.0366C76.3689 15.0796 74.1695 16.492 72.2887 18.2737C70.4078 20.0555 68.9214 22.1559 67.8293 24.575C66.7371 26.9941 66.1911 29.5653 66.1911 32.2886C66.1911 35.012 66.7371 37.5686 67.8293 39.9588C68.9214 42.349 70.4078 44.4421 72.2887 46.2384C74.1695 48.0346 76.3689 49.4541 78.8868 50.4971C81.4048 51.5402 84.1046 52.0616 86.9866 52.0616C89.8382 52.0616 92.5306 51.5402 95.0633 50.4971C97.5969 49.4541 99.796 48.0346 101.662 46.2384C103.527 44.4421 105.007 42.349 106.098 39.9588C107.19 37.5686 107.737 35.012 107.737 32.2886Z" fill="#606468"/>
<mask id="mask0" mask-type="alpha" maskUnits="userSpaceOnUse" x="0" y="0" width="121" height="65">
<path fill-rule="evenodd" clip-rule="evenodd" d="M55.7331 56.7984C52.695 59.29 49.2924 61.2021 45.5253 62.5347C41.7581 63.8675 37.8542 64.5687 33.8135 64.5687C30.7147 64.5687 27.7299 64.1499 24.8589 63.3821C21.9879 62.6144 19.2993 61.528 16.7928 60.1229C14.2864 58.7178 12.0003 57.0302 9.93447 55.0601C7.86854 53.0901 6.0989 50.91 4.62544 48.5198C3.15197 46.1297 2.01271 43.5657 1.20763 40.8279C0.402538 38.0901 0 35.2437 0 32.2886C0 29.3335 0.402538 26.4799 1.20763 23.7276C2.01271 20.9752 3.15197 18.4041 4.62544 16.0139C6.0989 13.6238 7.86854 11.4437 9.93447 9.47363C12.0003 7.50358 14.2864 5.81602 16.7928 4.4109C19.2993 3.00578 21.9879 1.91936 24.8589 1.15161C27.7299 0.383867 30.7147 0 33.8135 0C37.8542 0 41.7581 0.659093 45.5253 1.9773C49.2924 3.2955 52.695 5.21484 55.7331 7.73536L48.8063 18.5996C46.8924 16.6296 44.6291 15.1158 42.0163 14.0584C39.4036 13.0009 36.6694 12.4721 33.8135 12.4721C30.9274 12.4721 28.2235 12.9937 25.7019 14.0366C23.1803 15.0796 20.9778 16.492 19.0942 18.2737C17.2106 20.0555 15.7219 22.1559 14.6282 24.575C13.5346 26.9941 12.9876 29.5653 12.9876 32.2886C12.9876 35.012 13.5346 37.5686 14.6282 39.9588C15.7219 42.349 17.2106 44.4421 19.0942 46.2384C20.9778 48.0346 23.1803 49.4541 25.7019 50.4971C28.2235 51.5402 30.9274 52.0616 33.8135 52.0616C36.6694 52.0616 39.4036 51.5329 42.0163 50.4754C44.6291 49.4179 46.8924 47.9042 48.8063 45.9342L55.7331 56.7984ZM120.705 32.2886C120.705 35.2437 120.303 38.0901 119.499 40.8279C118.696 43.5657 117.566 46.1297 116.109 48.5198C114.653 50.91 112.894 53.0901 110.831 55.0601C108.768 57.0302 106.493 58.7178 104.005 60.1229C101.517 61.528 98.833 62.6144 95.9514 63.3821C93.0688 64.1499 90.0809 64.5687 86.9866 64.5687C83.8923 64.5687 80.9118 64.1499 78.045 63.3821C75.1782 62.6144 72.4935 61.528 69.9907 60.1229C67.4879 58.7178 65.2052 57.0302 63.1423 55.0601C61.0794 53.0901 59.3123 50.91 57.841 48.5198C56.3697 46.1297 55.2321 43.5657 54.4282 40.8279C53.6243 38.0901 53.2224 35.2437 53.2224 32.2886C53.2224 29.3335 53.6243 26.4799 54.4282 23.7276C55.2321 20.9752 56.3697 18.4113 57.841 16.0356C59.3123 13.66 61.0794 11.4872 63.1423 9.51708C65.2052 7.54704 67.4879 5.86671 69.9907 4.47608C72.4935 3.08544 75.1782 2.00627 78.045 1.23852C80.9118 0.470781 83.8923 0 86.9866 0C90.0809 0 93.0688 0.470781 95.9514 1.23852C98.833 2.00627 101.517 3.08544 104.005 4.47608C106.493 5.86671 108.768 7.54704 110.831 9.51708C112.894 11.4872 114.653 13.66 116.109 16.0356C117.566 18.4113 118.696 20.9752 119.499 23.7276C120.303 26.4799 120.705 29.3335 120.705 32.2886ZM107.737 32.2886C107.737 29.5653 107.19 26.9941 106.098 24.575C105.007 22.1559 103.527 20.0555 101.662 18.2737C99.796 16.492 97.5969 15.0796 95.0633 14.0366C92.5306 12.9937 89.8382 12.4721 86.9866 12.4721C84.1046 12.4721 81.4048 12.9937 78.8868 14.0366C76.3689 15.0796 74.1695 16.492 72.2887 18.2737C70.4078 20.0555 68.9214 22.1559 67.8293 24.575C66.7371 26.9941 66.1911 29.5653 66.1911 32.2886C66.1911 35.012 66.7371 37.5686 67.8293 39.9588C68.9214 42.349 70.4078 44.4421 72.2887 46.2384C74.1695 48.0346 76.3689 49.4541 78.8868 50.4971C81.4048 51.5402 84.1046 52.0616 86.9866 52.0616C89.8382 52.0616 92.5306 51.5402 95.0633 50.4971C97.5969 49.4541 99.796 48.0346 101.662 46.2384C103.527 44.4421 105.007 42.349 106.098 39.9588C107.19 37.5686 107.737 35.012 107.737 32.2886Z" fill="white"/>
</mask>
<g mask="url(#mask0)">
<path fill-rule="evenodd" clip-rule="evenodd" d="M87.7109 41.8823H120.603V52.065H87.7109V41.8823Z" fill="url(#paint0_linear)"/>
</g>
<path fill-rule="evenodd" clip-rule="evenodd" d="M133.394 76.7842V88.9999H102.939V75.9116C102.982 73.7512 103.514 71.9091 104.783 70.152C106.986 67.0733 116.124 64.4085 115.213 64.5485L87.7109 64.5685V52.0474H118.242C126.716 52.0474 133.394 57.1354 133.394 63.9664C133.394 66.2142 132.645 68.3327 131.332 70.152C129.162 73.187 125.43 76.0932 121.025 76.7842H133.394Z" fill="#606468"/>
<mask id="mask1" mask-type="alpha" maskUnits="userSpaceOnUse" x="87" y="52" width="47" height="37">
<path fill-rule="evenodd" clip-rule="evenodd" d="M133.394 76.7842V88.9999H102.939V75.9116C102.982 73.7512 103.514 71.9091 104.783 70.152C106.986 67.0733 116.124 64.4085 115.213 64.5485L87.7109 64.5685V52.0474H118.242C126.716 52.0474 133.394 57.1354 133.394 63.9664C133.394 66.2142 132.645 68.3327 131.332 70.152C129.162 73.187 125.43 76.0932 121.025 76.7842H133.394Z" fill="white"/>
</mask>
<g mask="url(#mask1)">
<path fill-rule="evenodd" clip-rule="evenodd" d="M100.502 64.5688H126.085V76.7846H100.502V64.5688Z" fill="url(#paint1_linear)"/>
</g>
<path fill-rule="evenodd" clip-rule="evenodd" d="M159.702 64.7269C145.964 64.7269 134.828 53.8596 134.828 40.4543C134.828 27.0489 145.964 16.1816 159.702 16.1816C173.44 16.1816 184.577 27.0489 184.577 40.4543C184.577 53.8596 173.44 64.7269 159.702 64.7269ZM159.702 52.0629C166.272 52.0629 171.599 46.8655 171.599 40.4543C171.599 34.043 166.272 28.8456 159.702 28.8456C153.132 28.8456 147.806 34.043 147.806 40.4543C147.806 46.8655 153.132 52.0629 159.702 52.0629ZM187.821 64.7269H198.924V55.0111L206.558 45.0921L217.538 64.7269H230L213.111 36.6628L228.902 16.1816H216.44L198.924 39.3876V16.1816H187.821V64.7269Z" fill="white"/>
<g opacity="0.294441">
<path opacity="0.294441" fill-rule="evenodd" clip-rule="evenodd" d="M192.857 42.8486L205.324 63.6414H196.125L188.019 49.094L192.857 42.8486Z" fill="url(#paint2_linear)"/>
</g>
<path d="M99.5892 29.6156C99.5892 25.8431 96.6869 22.6865 93.0592 22.6865C90.4794 22.6865 88.3834 24.2263 87.2548 26.382C86.2067 24.1493 83.9495 22.6865 81.4504 22.6865C77.8226 22.6865 74.9204 25.7661 74.9204 29.6156C74.9204 31.9253 75.8072 34.081 77.5001 35.3129L87.3354 44.4746C87.3354 44.4746 97.5737 34.5429 97.2513 35.0048C98.6218 33.3881 99.5892 32.0793 99.5892 29.6156Z" fill="white"/>
<defs>
<linearGradient id="paint0_linear" x1="109.562" y1="46.9736" x2="107.924" y2="61.1394" gradientUnits="userSpaceOnUse">
<stop stop-opacity="0.01"/>
<stop offset="1"/>
</linearGradient>
<linearGradient id="paint1_linear" x1="117.497" y1="70.6767" x2="114.521" y2="87.3672" gradientUnits="userSpaceOnUse">
<stop stop-opacity="0.01"/>
<stop offset="1"/>
</linearGradient>
<linearGradient id="paint2_linear" x1="187.363" y1="47.1815" x2="193.442" y2="51.0882" gradientUnits="userSpaceOnUse">
<stop/>
<stop offset="1" stop-color="white" stop-opacity="0.01"/>
</linearGradient>
</defs>
</svg>
