<svg width="234" height="102" viewBox="0 0 234 102" fill="none" xmlns="http://www.w3.org/2000/svg">
<rect width="234" height="102" fill="black" fill-opacity="0"/>
<rect width="234" height="102" fill="black" fill-opacity="0"/>
<rect width="234" height="102" fill="black" fill-opacity="0"/>
<rect width="146" height="102" fill="black" fill-opacity="0"/>
<rect width="132.112" height="74" fill="black" fill-opacity="0"/>
<rect width="132.112" height="74" fill="black" fill-opacity="0"/>
<path fill-rule="evenodd" clip-rule="evenodd" d="M61 65.0947C57.6748 67.9502 53.9507 70.1416 49.8275 71.6689C45.7043 73.1963 41.4315 74 37.009 74C33.6173 74 30.3504 73.52 27.2081 72.6401C24.0658 71.7602 21.1231 70.5151 18.3798 68.9048C15.6365 67.2944 13.1344 65.3604 10.8733 63.1025C8.61214 60.8447 6.67526 58.3462 5.06255 55.6069C3.44984 52.8677 2.20292 49.9292 1.32175 46.7915C0.440579 43.6538 0 40.3916 0 37.0049C0 33.6181 0.440579 30.3477 1.32175 27.1934C2.20292 24.039 3.44984 21.0923 5.06255 18.353C6.67526 15.6138 8.61214 13.1152 10.8733 10.8574C13.1344 8.5996 15.6365 6.66554 18.3798 5.05518C21.1231 3.44482 24.0658 2.19971 27.2081 1.31982C30.3504 0.439937 33.6173 0 37.009 0C41.4315 0 45.7043 0.755364 49.8275 2.26611C53.9507 3.77686 57.6748 5.97655 61 8.86523L53.4186 21.3164C51.3238 19.0586 48.8466 17.3237 45.9869 16.1118C43.1273 14.8999 40.1347 14.2939 37.009 14.2939C33.8501 14.2939 30.8907 14.8916 28.1308 16.0869C25.3709 17.2822 22.9602 18.9009 20.8986 20.9429C18.837 22.9849 17.2077 25.3921 16.0106 28.1646C14.8136 30.937 14.215 33.8838 14.215 37.0049C14.215 40.126 14.8136 43.0561 16.0106 45.7954C17.2077 48.5347 18.837 50.9336 20.8986 52.9922C22.9602 55.0508 25.3709 56.6777 28.1308 57.873C30.8907 59.0684 33.8501 59.666 37.009 59.666C40.1347 59.666 43.1273 59.0601 45.9869 57.8481C48.8466 56.6362 51.3238 54.9014 53.4186 52.6436L61 65.0947ZM132.112 37.0049C132.112 40.3916 131.672 43.6538 130.792 46.7915C129.913 49.9292 128.676 52.8677 127.082 55.6069C125.488 58.3462 123.563 60.8447 121.305 63.1025C119.047 65.3604 116.557 67.2944 113.834 68.9048C111.111 70.5151 108.173 71.7602 105.019 72.6401C101.864 73.52 98.5938 74 95.207 74C91.8203 74 88.5581 73.52 85.4204 72.6401C82.2827 71.7602 79.3443 70.5151 76.605 68.9048C73.8657 67.2944 71.3672 65.3604 69.1094 63.1025C66.8516 60.8447 64.9175 58.3462 63.3071 55.6069C61.6968 52.8677 60.4517 49.9292 59.5718 46.7915C58.6919 43.6538 58.252 40.3916 58.252 37.0049C58.252 33.6181 58.6919 30.3477 59.5718 27.1934C60.4517 24.039 61.6968 21.1006 63.3071 18.3779C64.9175 15.6553 66.8516 13.1651 69.1094 10.9072C71.3672 8.6494 73.8657 6.72364 76.605 5.12988C79.3443 3.53612 82.2827 2.29932 85.4204 1.41943C88.5581 0.539546 91.8203 0 95.207 0C98.5938 0 101.864 0.539546 105.019 1.41943C108.173 2.29932 111.111 3.53612 113.834 5.12988C116.557 6.72364 119.047 8.6494 121.305 10.9072C123.563 13.1651 125.488 15.6553 127.082 18.3779C128.676 21.1006 129.913 24.039 130.792 27.1934C131.672 30.3477 132.112 33.6181 132.112 37.0049ZM117.918 37.0049C117.918 33.8838 117.32 30.937 116.125 28.1646C114.93 25.3921 113.311 22.9849 111.269 20.9429C109.227 18.9009 106.82 17.2822 104.047 16.0869C101.275 14.8916 98.3281 14.2939 95.207 14.2939C92.0527 14.2939 89.0977 14.8916 86.3418 16.0869C83.5859 17.2822 81.1787 18.9009 79.1201 20.9429C77.0615 22.9849 75.4346 25.3921 74.2393 28.1646C73.0439 30.937 72.4463 33.8838 72.4463 37.0049C72.4463 40.126 73.0439 43.0561 74.2393 45.7954C75.4346 48.5347 77.0615 50.9336 79.1201 52.9922C81.1787 55.0508 83.5859 56.6777 86.3418 57.873C89.0977 59.0684 92.0527 59.666 95.207 59.666C98.3281 59.666 101.275 59.0684 104.047 57.873C106.82 56.6777 109.227 55.0508 111.269 52.9922C113.311 50.9336 114.93 48.5347 116.125 45.7954C117.32 43.0561 117.918 40.126 117.918 37.0049Z" fill="#606468"/>
<mask id="mask0" mask-type="alpha" maskUnits="userSpaceOnUse" x="0" y="0" width="133" height="74">
<rect width="132.112" height="74" fill="black" fill-opacity="0"/>
<rect width="132.112" height="74" fill="black" fill-opacity="0"/>
<path fill-rule="evenodd" clip-rule="evenodd" d="M61 65.0947C57.6748 67.9502 53.9507 70.1416 49.8275 71.6689C45.7043 73.1963 41.4315 74 37.009 74C33.6173 74 30.3504 73.52 27.2081 72.6401C24.0658 71.7602 21.1231 70.5151 18.3798 68.9048C15.6365 67.2944 13.1344 65.3604 10.8733 63.1025C8.61214 60.8447 6.67526 58.3462 5.06255 55.6069C3.44984 52.8677 2.20292 49.9292 1.32175 46.7915C0.440579 43.6538 0 40.3916 0 37.0049C0 33.6181 0.440579 30.3477 1.32175 27.1934C2.20292 24.039 3.44984 21.0923 5.06255 18.353C6.67526 15.6138 8.61214 13.1152 10.8733 10.8574C13.1344 8.5996 15.6365 6.66554 18.3798 5.05518C21.1231 3.44482 24.0658 2.19971 27.2081 1.31982C30.3504 0.439937 33.6173 0 37.009 0C41.4315 0 45.7043 0.755364 49.8275 2.26611C53.9507 3.77686 57.6748 5.97655 61 8.86523L53.4186 21.3164C51.3238 19.0586 48.8466 17.3237 45.9869 16.1118C43.1273 14.8999 40.1347 14.2939 37.009 14.2939C33.8501 14.2939 30.8907 14.8916 28.1308 16.0869C25.3709 17.2822 22.9602 18.9009 20.8986 20.9429C18.837 22.9849 17.2077 25.3921 16.0106 28.1646C14.8136 30.937 14.215 33.8838 14.215 37.0049C14.215 40.126 14.8136 43.0561 16.0106 45.7954C17.2077 48.5347 18.837 50.9336 20.8986 52.9922C22.9602 55.0508 25.3709 56.6777 28.1308 57.873C30.8907 59.0684 33.8501 59.666 37.009 59.666C40.1347 59.666 43.1273 59.0601 45.9869 57.8481C48.8466 56.6362 51.3238 54.9014 53.4186 52.6436L61 65.0947ZM132.112 37.0049C132.112 40.3916 131.672 43.6538 130.792 46.7915C129.913 49.9292 128.676 52.8677 127.082 55.6069C125.488 58.3462 123.563 60.8447 121.305 63.1025C119.047 65.3604 116.557 67.2944 113.834 68.9048C111.111 70.5151 108.173 71.7602 105.019 72.6401C101.864 73.52 98.5938 74 95.207 74C91.8203 74 88.5581 73.52 85.4204 72.6401C82.2827 71.7602 79.3443 70.5151 76.605 68.9048C73.8657 67.2944 71.3672 65.3604 69.1094 63.1025C66.8516 60.8447 64.9175 58.3462 63.3071 55.6069C61.6968 52.8677 60.4517 49.9292 59.5718 46.7915C58.6919 43.6538 58.252 40.3916 58.252 37.0049C58.252 33.6181 58.6919 30.3477 59.5718 27.1934C60.4517 24.039 61.6968 21.1006 63.3071 18.3779C64.9175 15.6553 66.8516 13.1651 69.1094 10.9072C71.3672 8.6494 73.8657 6.72364 76.605 5.12988C79.3443 3.53612 82.2827 2.29932 85.4204 1.41943C88.5581 0.539546 91.8203 0 95.207 0C98.5938 0 101.864 0.539546 105.019 1.41943C108.173 2.29932 111.111 3.53612 113.834 5.12988C116.557 6.72364 119.047 8.6494 121.305 10.9072C123.563 13.1651 125.488 15.6553 127.082 18.3779C128.676 21.1006 129.913 24.039 130.792 27.1934C131.672 30.3477 132.112 33.6181 132.112 37.0049ZM117.918 37.0049C117.918 33.8838 117.32 30.937 116.125 28.1646C114.93 25.3921 113.311 22.9849 111.269 20.9429C109.227 18.9009 106.82 17.2822 104.047 16.0869C101.275 14.8916 98.3281 14.2939 95.207 14.2939C92.0527 14.2939 89.0977 14.8916 86.3418 16.0869C83.5859 17.2822 81.1787 18.9009 79.1201 20.9429C77.0615 22.9849 75.4346 25.3921 74.2393 28.1646C73.0439 30.937 72.4463 33.8838 72.4463 37.0049C72.4463 40.126 73.0439 43.0561 74.2393 45.7954C75.4346 48.5347 77.0615 50.9336 79.1201 52.9922C81.1787 55.0508 83.5859 56.6777 86.3418 57.873C89.0977 59.0684 92.0527 59.666 95.207 59.666C98.3281 59.666 101.275 59.0684 104.047 57.873C106.82 56.6777 109.227 55.0508 111.269 52.9922C113.311 50.9336 114.93 48.5347 116.125 45.7954C117.32 43.0561 117.918 40.126 117.918 37.0049Z" fill="white"/>
</mask>
<g mask="url(#mask0)">
<rect width="36" height="11.67" fill="black" fill-opacity="0" transform="translate(96 48)"/>
<path fill-rule="evenodd" clip-rule="evenodd" d="M96 48H132V59.67H96V48Z" fill="url(#paint0_linear)"/>
</g>
<rect width="50" height="42.35" fill="black" fill-opacity="0" transform="translate(96 59.6499)"/>
<rect width="50" height="42.35" fill="black" fill-opacity="0" transform="translate(96 59.6499)"/>
<path fill-rule="evenodd" clip-rule="evenodd" d="M146 87.9999V102H112.667V86.9999C112.714 84.5239 113.296 82.4128 114.686 80.399C117.096 76.8706 127.098 73.8166 126.101 73.977L96 73.9999V59.6499H129.417C138.691 59.6499 146 65.4811 146 73.3099C146 75.886 145.181 78.314 143.744 80.399C141.369 83.8773 137.284 87.208 132.463 87.9999H146Z" fill="#606468"/>
<mask id="mask1" mask-type="alpha" maskUnits="userSpaceOnUse" x="96" y="59" width="50" height="43">
<rect width="50" height="42.35" fill="black" fill-opacity="0" transform="translate(96 59.6499)"/>
<rect width="50" height="42.35" fill="black" fill-opacity="0" transform="translate(96 59.6499)"/>
<path fill-rule="evenodd" clip-rule="evenodd" d="M146 87.9999V102H112.667V86.9999C112.714 84.5239 113.296 82.4128 114.686 80.399C117.096 76.8706 127.098 73.8166 126.101 73.977L96 73.9999V59.6499H129.417C138.691 59.6499 146 65.4811 146 73.3099C146 75.886 145.181 78.314 143.744 80.399C141.369 83.8773 137.284 87.208 132.463 87.9999H146Z" fill="white"/>
</mask>
<g mask="url(#mask1)">
<rect width="28" height="14" fill="black" fill-opacity="0" transform="translate(110 74)"/>
<path fill-rule="evenodd" clip-rule="evenodd" d="M110 74H138V88H110V74Z" fill="url(#paint1_linear)"/>
</g>
<rect width="88" height="46" fill="black" fill-opacity="0" transform="translate(146 14)"/>
<rect width="88" height="46" fill="black" fill-opacity="0" transform="translate(146 14)"/>
<path fill-rule="evenodd" clip-rule="evenodd" d="M169 60C156.297 60 146 49.7025 146 37C146 24.2975 156.297 14 169 14C181.703 14 192 24.2975 192 37C192 49.7025 181.703 60 169 60ZM169 48C175.075 48 180 43.0751 180 37C180 30.9249 175.075 26 169 26C162.925 26 158 30.9249 158 37C158 43.0751 162.925 48 169 48ZM195 60H205.266V50.7936L212.324 41.3947L222.477 60H234L218.384 33.4073L232.984 14H221.462L205.266 35.9893V14H195V60Z" fill="url(#paint2_linear)"/>
<rect width="21.6756" height="26.5927" fill="black" fill-opacity="0" transform="translate(212.324 33.4072)"/>
<g opacity="0.294441">
<rect width="21.6756" height="26.5927" fill="black" fill-opacity="0" transform="translate(212.324 33.4072)"/>
<path opacity="0.294441" fill-rule="evenodd" clip-rule="evenodd" d="M218.384 33.4072L234 59.9999H222.477L212.324 41.3947L218.384 33.4072Z" fill="url(#paint3_linear)"/>
</g>
<rect width="27" height="24.9706" fill="black" fill-opacity="0" transform="translate(82 26)"/>
<path d="M109 33.9412C109 29.6177 105.823 26 101.853 26C99.0294 26 96.7353 27.7647 95.5 30.2353C94.3529 27.6765 91.8823 26 89.147 26C85.1765 26 82 29.5294 82 33.9412C82 36.5882 82.9706 39.0588 84.8235 40.4706L95.5882 50.9706C95.5882 50.9706 106.794 39.5882 106.441 40.1176C107.941 38.2647 109 36.7647 109 33.9412Z" fill="#0ABB4D"/>
<defs>
<linearGradient id="paint0_linear" x1="119.916" y1="53.835" x2="117.953" y2="70.0493" gradientUnits="userSpaceOnUse">
<stop stop-opacity="0.01"/>
<stop offset="1"/>
</linearGradient>
<linearGradient id="paint1_linear" x1="128.601" y1="81" x2="125.04" y2="100.072" gradientUnits="userSpaceOnUse">
<stop stop-opacity="0.01"/>
<stop offset="1"/>
</linearGradient>
<linearGradient id="paint2_linear" x1="155.902" y1="-20.6328" x2="180.475" y2="79.3535" gradientUnits="userSpaceOnUse">
<stop offset="0.391123" stop-color="#09EE57"/>
<stop offset="1" stop-color="#008528"/>
</linearGradient>
<linearGradient id="paint3_linear" x1="211.502" y1="38.9487" x2="219.209" y2="43.7989" gradientUnits="userSpaceOnUse">
<stop/>
<stop offset="1" stop-color="white" stop-opacity="0.01"/>
</linearGradient>
</defs>
</svg>
