<?xml version="1.0" encoding="utf-8"?>
<!-- Generator: Adobe Illustrator 19.0.0, SVG Export Plug-In . SVG Version: 6.00 Build 0)  -->
<svg version="1.1" id="Laag_1" xmlns="http://www.w3.org/2000/svg" xmlns:xlink="http://www.w3.org/1999/xlink" x="0px" y="0px"
	 viewBox="0 0 477 166" style="enable-background:new 0 0 477 166;" xml:space="preserve">
<style type="text/css">
	.st0{fill-rule:evenodd;clip-rule:evenodd;fill:#5EAC24;}
	.st1{fill:#5EAC24;stroke:#5EAC24;stroke-width:0.25;stroke-miterlimit:10;}
	.st2{fill:#5EAC24;}
	.st3{stroke:#000000;stroke-miterlimit:10;}
	.st4{fill:#5EAC24;stroke:#5EAC24;stroke-miterlimit:10;}
	.st5{font-family:'ArialRoundedMTBold';}
	.st6{font-size:85.7893px;}
</style>
<path id="XMLID_92_" class="st0" d="M150.5,49.5l0,2.6l1.8,0.9v3.6l1.8,3.1l1.4,0.2l0.2-1.1l-1.7-2.7l-0.3-2.6h1l0.4,2.7l2.4,3.7
	l-0.6,1.2l1.6,2.4l3.8,1v-0.6l1.5,0.2l-0.1,1.1l1.2,0.2l1.9,0.5l2.6,3.1l3.4,0.3l0.1,0.8h1.3l-1.1,1.7l0.1,0.4l-0.7,0.5l-0.1,0.1
	l0,0l-1.5,1.1l-0.1,2.5l-0.3,1.5l3.3,4.3l0.3,1.5c0,0,1.2,0.3,1.3,0.3c0.1,0,2.7,2,2.7,2v7.8l0.9,0.3l-0.6,3.6l1.5,2.1l-0.3,3.5
	l2,3.7l2.6,2.3l2.6,0.1l0.3-0.9l-1.9-1.7l0.1-0.8l0.3-1l0.1-1l-1.3,0l-0.7-0.8l1.1-1.1l0.1-0.8l-1.2-0.4l0.1-0.8l1.7-0.3l2.6-1.3
	l0.9-1.7l2.7-3.6l-0.6-2.8l0.8-1.5l2.5,0.1l1.7-1.4l0.6-5.5l1.9-2.5L199,78l-1.7-0.6l-1.1-1.9l-3.9,0l-3.1-1.2L189,72l-1-1.7l-0.5,0
	l-0.1,0.6l-0.5,0.3l-0.8,0.1c0-0.2,0-0.3,0-0.3h-0.3v-0.7h1.3l0.1-0.2l-2,0l-1.6-2.6l-1.4-0.7l-0.1,0.8l-2.6,0.2l-1-1.4l-2.7-0.6
	l-2.2,2.7l-3.5-0.6l-0.3-4.1l-2.6-0.5l1-2l-0.3-1.2l-3.4,2.3l-2.1-0.3l-0.8-1.7l0.5-1.8l1.2-2.2l2.7-1.4h5.2l0,1.6l1.9,0.9l-0.1-2.8
	l1.3-1.4l2.7-1.8l0.2-1.3l2.7-2.9l2.9-1.6l-0.3-0.2l1.9-1.9l0.7,0.2l0.3,0.4l0.7-0.8l0.2-0.1l-0.8-0.1l-0.8-0.3v-0.8l0.4-0.4h1
	l0.4,0.2l0.4,0.8l0.5-0.1v-0.1l0.1,0.1l1.4-0.2l0.2-0.7L190,42v0.7l-0.7,0.5l0.1,0.8l2.4,0.8l0,0l0.6-0.1l0-1.1l-1.9-0.9l-0.1-0.5
	l1.6-0.6l0.1-1.6l-1.7-1.1l-0.1-2.7l-2.3,1.2h-0.8l0.2-2l-3.1-0.8l-1.3,1v3.1l-2.3,0.8l-0.9,2l-1,0.2v-2.6l-2.2-0.3l-1.1-0.7
	l-0.4-1.7l3.9-2.4l1.9-0.6l0.2,1.3l1.1-0.1l0.1-0.7l1.1-0.2l0-0.2l-0.5-0.2l-0.1-0.7l1.4-0.1l0.8-0.9l0-0.1h0l0.3-0.3l2.9-0.4
	l1.3,1.1l-3.4,1.8l4.3,1l0.6-1.5h1.9l0.7-1.3L192,32v-1.6l-4.1-1.9l-2.9,0.3l-1.6,0.9l0.1,2.1l-1.7-0.3l-0.3-1.2l1.6-1.5l-2.9-0.2
	l-0.8,0.3l-0.4,1l1.1,0.2l-0.2,1.1l-1.9,0.1l-0.3,0.7l-2.7,0.1c0,0-0.1-1.6-0.2-1.6c-0.1,0,2.1,0,2.1,0l1.6-1.6l-0.9-0.4l-1.2,1.2
	l-1.9-0.1l-1.2-1.7h-2.5l-2.6,2h2.4l0.2,0.7l-0.6,0.6l2.6,0.1l0.4,1l-3-0.1l-0.1-0.8l-1.9-0.4l-1-0.6l-2.2,0
	c7.3-5.5,16.2-8.7,25.9-8.7c11.1,0,21.3,4.3,29.1,11.3l-0.5,1l-2,0.8l-0.9,1l0.2,1.1l1,0.2l0.6,1.6l1.8-0.8l0.3,2.2h-0.5l-1.5-0.2
	l-1.6,0.3l-1.6,2.3l-2.3,0.4l-0.3,2l1,0.2l-0.3,1.3l-2.3-0.5l-2.1,0.5l-0.4,1.2l0.4,2.5l1.2,0.6l2,0l1.4-0.1l0.4-1.1l2.2-2.9
	l1.4,0.3l1.4-1.3l0.3,1l3.4,2.4l-0.4,0.6l-1.6-0.1l0.6,0.9l1,0.2l1.1-0.5l0-1.4l0.5-0.3l-0.4-0.4l-2.3-1.3l-0.6-1.8h1.9l0.6,0.6
	l1.6,1.5l0.1,1.8l1.7,1.9l0.6-2.6l1.2-0.7l0.2,2.1l1.2,1.3l2.3,0c0.4,1.2,0.8,2.4,1.2,3.6l-0.2,0.2h-3.5l-2.1-1.6l-2.3,0.2v1.4h-0.7
	l-0.8-0.6l-3.9-1v-2.6l-4.9,0.4l-1.5,0.9h-2l-1-0.1L208,53v2.6l-4.9,3.6l0.4,1.6h1l-0.3,1.5l-0.7,0.3l0,3.8l4.2,5h1.8l0.1-0.3h3.3
	l0.9-0.9h1.9l1,1.1l2.8,0.3l-0.4,3.8l3.1,5.6l-1.6,3.2l0.1,1.5l1.3,1.3v3.6l1.7,2.3v3h1.5c-8.1,10.2-20.4,16.8-34.2,16.8
	c-24.3,0-44.1-20.4-44.1-45.4C147,60.9,148.2,54.9,150.5,49.5L150.5,49.5z M230,46.9l0.3-0.3c0.4,0.7,0.7,1.5,1,2.2l-0.5,0l-0.9,0.1
	V46.9L230,46.9z M223.1,38.3l0-2.2c0.8,0.8,1.5,1.7,2.2,2.6l-0.9,1.3l-3,0l-0.2-0.6L223.1,38.3L223.1,38.3z M165.1,32.8L165.1,32.8
	l1-0.1l0.1-0.3h1.6v0.7l-0.5,0.6h-2.2V32.8L165.1,32.8z M166.7,35c0,0,1-0.2,1-0.2c0.1,0,0,1,0,1l-2.2,0.1l-0.4-0.5L166.7,35
	L166.7,35z M169.2,40.2l1.1-0.6l1,0.3l-0.4,1.4l-1.1,0.4L169.2,40.2L169.2,40.2z M175.3,43.6v0.9h-2.6l-1-0.3l0.3-0.7l1.3-0.5h1.7
	v0.5H175.3L175.3,43.6z M176.5,70v0.9l-0.7,0.4l-0.8,0.2V70H176.5L176.5,70z M175.8,44.5v-1.1l0.9,0.8L175.8,44.5L175.8,44.5z
	 M176.2,71.8v0.9l-0.6,0.6h-1.4l0.2-1l0.7-0.1l0.1-0.3L176.2,71.8L176.2,71.8z M178.7,71.5v0.9h-1.4l-0.4-0.6V71h0.1L178.7,71.5
	L178.7,71.5z M177.4,70.3l0.4-0.4l0.7,0.4l-0.5,0.5L177.4,70.3L177.4,70.3z M233.8,56.9l0.1-0.2c0.1,0.2,0.1,0.5,0.2,0.8L233.8,56.9
	L233.8,56.9z M184.1,70.9l0,0.7l0.9-0.1l0.1-0.7l-0.5-0.4L184.1,70.9L184.1,70.9z"/>
<g id="XMLID_79_">
	<g id="XMLID_85_">
		<g id="XMLID_28_">
			<path id="XMLID_29_" class="st1" d="M446,78.2l21.1,33.2c1.6,2.5,2.7,4.3,3.4,5.6c0.7,1.3,1,2.5,1,3.7c0,3.3-0.9,5.8-2.7,7.7
				c-1.8,1.9-4.1,2.8-7.1,2.8c-2.5,0-4.4-0.7-5.8-2c-1.4-1.4-3.2-3.8-5.5-7.4l-18.2-29.9l-11.2,10.6v16.4c0,4-1,7-3.1,9.2
				c-2.1,2.1-4.5,3.2-7.2,3.2c-3.2,0-5.7-1.1-7.5-3.2c-1.8-2.1-2.7-5.2-2.7-9.3V30.9c0-4.6,0.9-8.1,2.6-10.4
				c1.8-2.4,4.3-3.6,7.5-3.6c3.2,0,5.7,1.1,7.5,3.2c1.9,2.2,2.8,5.4,2.8,9.6v49.9"/>
		</g>
	</g>
	<path id="XMLID_81_" class="st2" d="M462.8,69.2c-7.9,9.4-19.1,11.7-26.6,12.1l0,0c-0.4,0.1-10,1.4-19.9,0.2l0.4-3
		c4.3,0.5,8.6,0.5,12,0.4c0.7-0.1,1.5-0.3,2.4-0.5c1-0.2,2.1-0.6,3.3-1c1.2-0.4,2.5-0.9,3.8-1.5c1.3-0.6,2.7-1.3,4-2
		c1.4-0.8,2.7-1.6,4.1-2.6c1.3-0.9,2.6-2,3.9-3.1c1.3-1.1,2.4-2.3,3.5-3.5c0.5-0.6,1.1-1.2,1.6-1.8c0.2-0.3,0.5-0.6,0.7-0.9
		c0.2-0.3,0.5-0.6,0.7-0.9c0.9-1.2,1.7-2.5,2.4-3.7c0.3-0.6,0.7-1.2,1-1.8c0.3-0.6,0.6-1.2,0.8-1.7c0.2-0.6,0.5-1.1,0.7-1.6
		c0.2-0.5,0.4-1,0.5-1.5c0.2-0.5,0.3-0.9,0.4-1.3c0.1-0.4,0.2-0.8,0.3-1.1c0.4-1.4,0.5-2.2,0.5-2.2s-0.3,0.8-0.7,2.1
		c-0.1,0.3-0.3,0.7-0.4,1.1c-0.2,0.4-0.3,0.8-0.5,1.3c-0.2,0.4-0.4,0.9-0.6,1.4c-0.2,0.5-0.5,1-0.8,1.6c-0.3,0.5-0.6,1.1-0.9,1.6
		c-0.3,0.5-0.7,1.1-1.1,1.7c-0.8,1.1-1.6,2.3-2.6,3.5c-0.2,0.3-0.5,0.6-0.7,0.9c-0.3,0.3-0.5,0.6-0.8,0.8c-0.5,0.6-1.1,1.1-1.6,1.7
		c-1.2,1.1-2.3,2.1-3.6,3.1c-1.3,0.9-2.6,1.8-3.9,2.6c-1.3,0.8-2.7,1.5-4,2.1c-1.3,0.6-2.7,1.2-3.9,1.6c-1.3,0.5-2.5,0.8-3.6,1.1
		c-1.1,0.3-2.2,0.5-3.1,0.6c-0.7,0.1-1.4,0.2-2,0.2c1-8.6,3.6-24.7,10-32.3c8.9-10.7,28.5-9.1,32.7-18.4
		C472.1,27.1,475.8,53.7,462.8,69.2z"/>
</g>
<path id="XMLID_69_" class="st3" d="M236.3,22.6c12.3,12.3,18.5,27.2,18.5,44.7c0,17.5-6.2,32.3-18.5,44.7
	c-12.4,12.3-27.3,18.5-44.8,18.5c-17.5,0-32.3-6.2-44.7-18.5c-12.3-12.3-18.5-27.2-18.5-44.7c0-17.4,6.2-32.3,18.5-44.7
	c12.3-12.3,27.2-18.5,44.7-18.5C209,4.1,223.9,10.3,236.3,22.6z M157.8,33.5c-9.3,9.3-14,20.6-14,33.7s4.7,24.4,14,33.7
	c9.3,9.3,20.5,13.9,33.7,13.9c13.2,0,24.4-4.6,33.7-13.9c9.3-9.3,14-20.6,14-33.7s-4.7-24.4-14-33.7c-9.3-9.3-20.6-14-33.7-14
	C178.4,19.6,167.2,24.2,157.8,33.5z"/>
<path id="XMLID_51_" class="st4" d="M344.8,38.6c12.7,0,23.5,4.5,32.5,13.5c9,9,13.5,19.8,13.5,32.5s-4.5,23.5-13.5,32.5
	c-9,9-19.8,13.5-32.5,13.5c-12.7,0-23.5-4.5-32.5-13.5c-9-9-13.5-19.8-13.5-32.5s4.5-23.5,13.5-32.5
	C321.2,43.1,332.1,38.6,344.8,38.6z M344.8,54.3c-8.4,0-15.6,3-21.5,8.9c-5.9,5.9-8.8,13.1-8.8,21.5c0,8.4,2.9,15.5,8.8,21.5
	c5.9,5.9,13.1,8.9,21.5,8.9s15.6-3,21.5-8.9c5.9-5.9,8.9-13.1,8.9-21.5c0-8.4-3-15.6-8.9-21.5C360.3,57.3,353.2,54.3,344.8,54.3z"/>
<text id="XMLID_50_" transform="matrix(1 0 0 1 244.7049 160.0474)" class="st5 st6">2</text>
<path id="XMLID_86_" d="M118,91.6c0,3.8-1,7.9-3,12.3c-2,4.4-5.1,8.8-9.4,13c-4.3,4.3-9.7,7.7-16.3,10.4c-6.6,2.7-14.3,4-23.1,4
	c-6.7,0-12.7-0.6-18.2-1.8c-5.5-1.2-10.4-3.1-14.9-5.6c-4.5-2.5-8.6-5.8-12.3-10c-3.3-3.7-6.2-7.9-8.5-12.6
	C9.9,96.8,8.2,91.8,7,86.6c-1.2-5.3-1.8-10.8-1.8-16.8c0-9.6,1.5-18.2,4.4-25.8c3-7.6,7.2-14.1,12.7-19.5c5.5-5.4,12-9.5,19.4-12.3
	C49.2,9.4,57.1,8,65.5,8c10.2,0,19.4,1.9,27.4,5.8c8,3.9,14.1,8.6,18.4,14.3c4.3,5.7,6.4,11,6.4,16.1c0,2.8-1,5.2-3.1,7.3
	c-2.1,2.1-4.6,3.6-7.5,3.2c-3-0.4-3.5-0.7-5.1-2.1c-1.6-1.5-3.4-5.2-5.4-8.8c-3.3-5.9-7.8-9.7-12.3-12.7c-4.5-2.9-12.1-5.7-18.7-5.7
	C55,25.3,45.1,29.5,38.9,37c-6.2,7.5-12,18.8-12,32.6c0,9.3,2.6,20.2,5.3,26.4c2.8,6.2,8.9,11.3,14,14.3c5.1,3,11.9,4.3,18.7,4.3
	c7.4,0,14.9-2.6,20-6c5.1-3.4,8.7-8.7,11.3-15.3c1.1-3.1,1.3-7.3,2.9-9.3c1.6-2,4.2-3,7.8-3c3,0,5.7,1,7.9,3
	C116.9,86.1,118,88.6,118,91.6z"/>
</svg>
