<?xml version="1.0" encoding="utf-8"?>
<!-- Generator: Adobe Illustrator 19.0.0, SVG Export Plug-In . SVG Version: 6.00 Build 0)  -->
<svg version="1.1" id="Laag_1" xmlns="http://www.w3.org/2000/svg" xmlns:xlink="http://www.w3.org/1999/xlink" x="0px" y="0px"
	 viewBox="0 0 350.6 139.1" style="enable-background:new 0 0 350.6 139.1;" xml:space="preserve">
<style type="text/css">
	.st0{stroke:#000000;stroke-width:3;stroke-miterlimit:10;}
	.st1{fill-rule:evenodd;clip-rule:evenodd;fill:#5EAC24;}
	.st2{fill:#5EAC24;stroke:#5EAC24;stroke-width:4;stroke-miterlimit:10;}
	.st3{fill:#5EAC24;}
	.st4{stroke:#000000;stroke-width:5;stroke-miterlimit:10;}
	.st5{fill:#5EAC24;stroke:#5EAC24;stroke-width:2;stroke-miterlimit:10;}
	.st6{stroke:#000000;stroke-width:2;stroke-miterlimit:10;}
	.st7{font-family:'ArialRoundedMTBold';}
	.st8{font-size:53.9882px;}
</style>
<g id="XMLID_26_">
	<path id="XMLID_125_" class="st0" d="M90.3,76c0,2.4-0.6,5-1.9,7.8c-1.2,2.8-3.2,5.5-5.9,8.2c-2.7,2.7-6.1,4.9-10.3,6.5
		c-4.2,1.7-9,2.5-14.6,2.5c-4.2,0-8-0.4-11.5-1.1c-3.4-0.7-6.6-1.9-9.4-3.5c-2.8-1.6-5.4-3.7-7.7-6.3c-2.1-2.4-3.9-5-5.4-7.9
		c-1.5-2.9-2.6-6-3.3-9.3c-0.7-3.3-1.1-6.8-1.1-10.5c0-6,0.9-11.5,2.8-16.2c1.9-4.8,4.5-8.9,8-12.3c3.5-3.4,7.5-6,12.2-7.8
		c4.7-1.8,9.6-2.7,14.9-2.7c6.4,0,12.2,1.2,17.2,3.6c5,2.4,8.9,5.4,11.6,9c2.7,3.6,4,6.9,4,10.1c0,1.7-0.7,3.3-2,4.6
		c-1.3,1.3-2.9,2-4.7,2c-2.1,0-3.6-0.5-4.6-1.4c-1-0.9-2.2-2.5-3.4-4.8c-2.1-3.7-4.6-6.5-7.4-8.3c-2.8-1.8-6.3-2.8-10.5-2.8
		c-6.6,0-11.9,2.4-15.8,7.1c-3.9,4.7-5.9,11.5-5.9,20.2c0,5.8,0.9,10.7,2.6,14.6c1.7,3.9,4.2,6.8,7.4,8.7c3.2,1.9,6.9,2.9,11.2,2.9
		c4.6,0,8.6-1.1,11.8-3.3c3.2-2.2,5.6-5.4,7.2-9.5c0.7-2,1.5-3.6,2.6-4.8c1-1.2,2.6-1.9,4.9-1.9c1.9,0,3.6,0.6,4.9,1.9
		C89.6,72.6,90.3,74.2,90.3,76z"/>
	<path id="XMLID_77_" class="st1" d="M118,52.9l0,1.4l1,0.5v2l1,1.7l0.8,0.1l0.1-0.6l-0.9-1.5l-0.2-1.4h0.5l0.2,1.5l1.3,2l-0.3,0.7
		l0.9,1.3l2.1,0.5v-0.3l0.8,0.1l-0.1,0.6l0.7,0.1l1,0.3l1.4,1.7l1.9,0.1l0,0.4h0.7l-0.6,0.9l0,0.2l-0.4,0.3l0,0.1l0,0l-0.8,0.6
		l-0.1,1.4l-0.2,0.8l1.8,2.4l0.1,0.8c0,0,0.7,0.2,0.7,0.2c0.1,0,1.5,1.1,1.5,1.1v4.3l0.5,0.1l-0.3,2l0.8,1.2l-0.2,2l1.1,2l1.4,1.3
		l1.4,0l0.1-0.5l-1.1-0.9l0.1-0.5l0.2-0.6l0-0.6l-0.7,0l-0.4-0.5l0.6-0.6l0.1-0.4l-0.7-0.2l0-0.4l0.9-0.1l1.4-0.7l0.5-0.9l1.5-2
		l-0.3-1.6l0.5-0.8l1.4,0l0.9-0.8l0.3-3l1-1.4l0.2-0.9l-0.9-0.3l-0.6-1.1l-2.1,0l-1.7-0.7l-0.1-1.2l-0.5-0.9l-0.3,0l-0.1,0.3
		l-0.3,0.2l-0.4,0c0-0.1,0-0.2,0-0.2h-0.2v-0.4h0.7l0-0.1l-1.1,0l-0.9-1.4l-0.8-0.4l0,0.4l-1.4,0.1l-0.5-0.7l-1.5-0.3l-1.2,1.5
		l-1.9-0.3l-0.1-2.2l-1.4-0.3l0.6-1.1l-0.2-0.6l-1.8,1.3l-1.2-0.1l-0.4-0.9l0.2-1l0.6-1.2l1.5-0.8h2.9l0,0.9l1,0.5l-0.1-1.5l0.7-0.8
		l1.5-1l0.1-0.7l1.5-1.6l1.6-0.9l-0.1-0.1l1.1-1l0.4,0.1l0.2,0.2l0.4-0.5l0.1,0l-0.4-0.1l-0.5-0.2v-0.4l0.2-0.2h0.5l0.2,0.1l0.2,0.4
		l0.3,0v0l0.1,0l0.7-0.1l0.1-0.4l0.4,0.1v0.4l-0.4,0.3l0.1,0.4l1.3,0.4l0,0l0.3,0l0-0.6l-1.1-0.5l-0.1-0.3l0.9-0.3l0-0.9l-0.9-0.6
		l-0.1-1.5l-1.3,0.6h-0.5l0.1-1.1l-1.7-0.4l-0.7,0.6V47l-1.3,0.4l-0.5,1.1l-0.6,0.1v-1.4l-1.2-0.2l-0.6-0.4l-0.2-0.9l2.2-1.3
		l1.1-0.3l0.1,0.7l0.6,0l0-0.4l0.6-0.1l0-0.1l-0.3-0.1l-0.1-0.4l0.8-0.1l0.5-0.5l0,0h0L137,43l1.6-0.2l0.7,0.6l-1.8,1l2.3,0.6
		l0.3-0.8h1l0.4-0.7l-0.7-0.2v-0.9l-2.3-1l-1.6,0.2l-0.9,0.5l0.1,1.2l-0.9-0.1l-0.1-0.6l0.9-0.8l-1.6-0.1l-0.5,0.1l-0.2,0.6l0.6,0.1
		l-0.1,0.6l-1,0.1l-0.2,0.4l-1.5,0c0,0,0-0.9-0.1-0.9c-0.1,0,1.2,0,1.2,0l0.9-0.9l-0.5-0.2l-0.6,0.6l-1.1-0.1l-0.6-0.9h-1.4
		l-1.4,1.1h1.3l0.1,0.4l-0.3,0.3l1.4,0l0.2,0.5l-1.6-0.1l-0.1-0.4l-1-0.2l-0.5-0.3l-1.2,0c4-3,8.9-4.8,14.2-4.8
		c6.1,0,11.7,2.4,16,6.2l-0.3,0.5l-1.1,0.5l-0.5,0.5l0.1,0.6l0.6,0.1l0.3,0.9l1-0.4l0.2,1.2h-0.3l-0.8-0.1l-0.9,0.2l-0.9,1.3
		l-1.3,0.2l-0.2,1.1l0.5,0.1l-0.2,0.7l-1.2-0.3l-1.1,0.3l-0.2,0.7l0.2,1.4l0.7,0.3l1.1,0l0.8-0.1l0.2-0.6l1.2-1.6l0.8,0.2l0.8-0.7
		l0.1,0.6l1.9,1.3l-0.2,0.3l-0.9,0l0.3,0.5l0.5,0.1l0.6-0.3l0-0.8l0.3-0.1l-0.2-0.2l-1.3-0.7l-0.3-1h1.1l0.3,0.3l0.9,0.8l0,1l0.9,1
		l0.3-1.4l0.6-0.4l0.1,1.2l0.6,0.7l1.3,0c0.2,0.6,0.5,1.3,0.7,2l-0.1,0.1h-1.9l-1.2-0.9L159,55v0.8h-0.4l-0.4-0.3l-2.1-0.6v-1.4
		l-2.7,0.2l-0.8,0.5h-1.1l-0.5-0.1l-1.3,0.8v1.4l-2.7,2l0.2,0.9h0.5l-0.1,0.8l-0.4,0.1l0,2.1l2.3,2.7h1l0.1-0.2h1.8l0.5-0.5h1
		l0.6,0.6l1.5,0.2l-0.2,2.1l1.7,3.1l-0.9,1.8l0.1,0.8l0.7,0.7v2l0.9,1.3v1.7h0.8c-4.4,5.6-11.2,9.2-18.8,9.2
		c-13.4,0-24.2-11.2-24.2-25C116.1,59.2,116.8,55.9,118,52.9L118,52.9z M161.7,51.5l0.2-0.2c0.2,0.4,0.4,0.8,0.6,1.2l-0.3,0
		l-0.5,0.1V51.5L161.7,51.5z M157.9,46.7l0-1.2c0.4,0.5,0.8,0.9,1.2,1.4l-0.5,0.7l-1.7,0l-0.1-0.4L157.9,46.7L157.9,46.7z M126,43.7
		L126,43.7l0.5,0l0-0.2h0.9v0.4l-0.2,0.3H126V43.7L126,43.7z M126.9,44.9c0,0,0.5-0.1,0.6-0.1c0,0,0,0.5,0,0.5l-1.2,0.1l-0.2-0.3
		L126.9,44.9L126.9,44.9z M128.3,47.8l0.6-0.3l0.6,0.1l-0.2,0.8l-0.6,0.2L128.3,47.8L128.3,47.8z M131.6,49.7v0.5h-1.5l-0.5-0.2
		l0.1-0.4l0.7-0.3h0.9v0.3H131.6L131.6,49.7z M132.3,64.2v0.5l-0.4,0.2l-0.5,0.1v-0.8H132.3L132.3,64.2z M131.9,50.2v-0.6l0.5,0.5
		L131.9,50.2L131.9,50.2z M132.1,65.2v0.5l-0.3,0.4H131l0.1-0.5l0.4,0l0.1-0.2L132.1,65.2L132.1,65.2z M133.5,65v0.5h-0.8l-0.2-0.3
		v-0.5h0.1L133.5,65L133.5,65z M132.8,64.3l0.2-0.2l0.4,0.2l-0.3,0.3L132.8,64.3L132.8,64.3z M163.8,57L163.8,57
		c0.1,0,0.1,0.2,0.2,0.3L163.8,57L163.8,57z M136.5,64.6l0,0.4l0.5,0l0.1-0.4l-0.3-0.2L136.5,64.6L136.5,64.6z"/>
	<g id="XMLID_25_">
		<g id="XMLID_54_">
			<g id="XMLID_60_">
				<path id="XMLID_61_" class="st2" d="M308.3,69l13.3,20.9c1,1.6,1.7,2.7,2.1,3.5c0.4,0.8,0.6,1.6,0.6,2.3c0,2.1-0.6,3.7-1.7,4.9
					c-1.1,1.2-2.6,1.8-4.4,1.8c-1.6,0-2.8-0.4-3.7-1.3c-0.9-0.9-2-2.4-3.5-4.6l-11.4-18.8l-7,6.6v10.3c0,2.5-0.7,4.4-2,5.8
					c-1.3,1.3-2.8,2-4.5,2c-2,0-3.6-0.7-4.7-2s-1.7-3.3-1.7-5.9V39.3c0-2.9,0.6-5.1,1.7-6.6c1.1-1.5,2.7-2.3,4.7-2.3
					c2,0,3.6,0.7,4.7,2c1.2,1.4,1.8,3.4,1.8,6v31.4"/>
			</g>
		</g>
		<path id="XMLID_49_" class="st3" d="M318.9,63.4c-4.9,5.9-12,7.4-16.8,7.6l0,0c-0.3,0-6.3,0.9-12.5,0.1l0.2-1.9
			c2.7,0.3,5.4,0.3,7.5,0.2c0.4-0.1,1-0.2,1.5-0.3c0.6-0.2,1.3-0.4,2.1-0.6c0.8-0.3,1.6-0.6,2.4-0.9c0.8-0.4,1.7-0.8,2.5-1.3
			c0.9-0.5,1.7-1,2.6-1.6c0.8-0.6,1.7-1.2,2.4-1.9c0.8-0.7,1.5-1.4,2.2-2.2c0.3-0.4,0.7-0.8,1-1.2c0.2-0.2,0.3-0.4,0.5-0.6
			c0.1-0.2,0.3-0.4,0.4-0.6c0.6-0.8,1.1-1.6,1.5-2.4c0.2-0.4,0.4-0.8,0.6-1.1c0.2-0.4,0.4-0.7,0.5-1.1c0.1-0.4,0.3-0.7,0.4-1
			c0.1-0.3,0.2-0.6,0.3-0.9c0.1-0.3,0.2-0.6,0.3-0.8c0.1-0.3,0.2-0.5,0.2-0.7c0.2-0.9,0.3-1.4,0.3-1.4s-0.2,0.5-0.4,1.3
			c-0.1,0.2-0.2,0.4-0.3,0.7c-0.1,0.3-0.2,0.5-0.3,0.8c-0.1,0.3-0.3,0.6-0.4,0.9c-0.2,0.3-0.3,0.6-0.5,1c-0.2,0.3-0.4,0.7-0.6,1
			c-0.2,0.3-0.4,0.7-0.7,1.1c-0.5,0.7-1,1.5-1.6,2.2c-0.2,0.2-0.3,0.4-0.5,0.5c-0.2,0.2-0.3,0.4-0.5,0.5c-0.3,0.4-0.7,0.7-1,1
			c-0.7,0.7-1.5,1.3-2.3,1.9c-0.8,0.6-1.6,1.2-2.5,1.7c-0.8,0.5-1.7,1-2.5,1.3c-0.8,0.4-1.7,0.7-2.5,1c-0.8,0.3-1.6,0.5-2.3,0.7
			c-0.7,0.2-1.4,0.3-1.9,0.4c-0.5,0.1-0.9,0.1-1.2,0.2c0.6-5.4,2.3-15.5,6.3-20.3c5.6-6.7,18-5.7,20.6-11.6
			C324.7,36.9,327,53.6,318.9,63.4z"/>
	</g>
	<path id="XMLID_21_" class="st4" d="M168.4,34.6c7.8,7.8,11.7,17.1,11.7,28.1c0,11-3.9,20.4-11.7,28.1
		c-7.8,7.8-17.2,11.7-28.2,11.7c-11,0-20.4-3.9-28.1-11.7c-7.8-7.8-11.7-17.1-11.7-28.1c0-11,3.9-20.4,11.7-28.1
		c7.8-7.8,17.1-11.7,28.1-11.7C151.2,22.9,160.6,26.8,168.4,34.6z M119,41.4c-5.9,5.9-8.8,12.9-8.8,21.2s2.9,15.4,8.8,21.2
		c5.9,5.8,12.9,8.7,21.2,8.7c8.3,0,15.4-2.9,21.2-8.7c5.9-5.9,8.8-12.9,8.8-21.2s-2.9-15.4-8.8-21.2c-5.9-5.9-12.9-8.8-21.2-8.8
		C131.9,32.7,124.9,35.6,119,41.4z"/>
	<path id="XMLID_18_" class="st5" d="M244.3,44.6c8,0,14.8,2.8,20.4,8.5c5.6,5.6,8.5,12.5,8.5,20.4s-2.8,14.8-8.5,20.4
		c-5.6,5.6-12.5,8.5-20.4,8.5s-14.8-2.8-20.4-8.5c-5.6-5.6-8.5-12.5-8.5-20.4s2.8-14.8,8.5-20.4C229.5,47.4,236.3,44.6,244.3,44.6z
		 M244.3,54.5c-5.3,0-9.8,1.9-13.6,5.6c-3.7,3.7-5.6,8.3-5.6,13.6c0,5.3,1.9,9.8,5.6,13.5c3.7,3.7,8.3,5.6,13.6,5.6
		s9.8-1.9,13.5-5.6c3.7-3.7,5.6-8.2,5.6-13.5c0-5.3-1.9-9.8-5.6-13.6C254.1,56.4,249.6,54.5,244.3,54.5z"/>
	<text id="XMLID_17_" transform="matrix(1 0 0 1 178.1745 121.0496)" class="st6 st7 st8">2</text>
</g>
</svg>
